<svg xmlns="http://www.w3.org/2000/svg" version="1.1" xmlns:xlink="http://www.w3.org/1999/xlink" xmlns:svgjs="http://svgjs.dev/svgjs" width="1500" height="526" viewBox="0 0 1500 526"><g transform="matrix(1,0,0,1,-0.9090909090909918,-0.6636777620312273)"><svg viewBox="0 0 396 139" data-background-color="#ffffff" preserveAspectRatio="xMidYMid meet" height="526" width="1500" xmlns="http://www.w3.org/2000/svg" xmlns:xlink="http://www.w3.org/1999/xlink"><g id="tight-bounds" transform="matrix(1,0,0,1,0.2400000000000091,0.17538252646832575)"><svg viewBox="0 0 395.52 138.64897404639927" height="138.64897404639927" width="395.52"><g><svg viewBox="0 0 654.8609284044453 229.56056802778338" height="138.64897404639927" width="395.52"><g transform="matrix(1,0,0,1,259.3409284044452,67.9407691195646)"><svg viewBox="0 0 395.52000000000004 93.67902978865416" height="93.67902978865416" width="395.52000000000004"><g id="textblocktransform"><svg viewBox="0 0 395.52000000000004 93.67902978865416" height="93.67902978865416" width="395.52000000000004" id="textblock"><g><svg viewBox="0 0 395.52000000000004 63.07367198838897" height="63.07367198838897" width="395.52000000000004"><g transform="matrix(1,0,0,1,0,0)"><svg width="395.52000000000004" viewBox="1.7 -37.25 275.84000000000003 43.95" height="63.07367198838897" data-palette-color="#35185a"><g class="wordmark-text-0" data-fill-palette-color="primary" id="text-0"><path d="M26.7 5.95L26.7 5.95 14.5 5.95Q7.95 5.95 4.83 2.55 1.7-0.85 1.7-6.25L1.7-6.25 1.7-20.3Q1.7-23.05 2.5-25.08 3.3-27.1 4.85-28.45L4.85-28.45 11.35-33.9Q12.9-35.2 15.3-35.85 17.7-36.5 20.95-36.5L20.95-36.5 33.15-36.5Q34.35-36.5 34.9-35.95 35.45-35.4 35.45-34.2L35.45-34.2 35.45-28.15Q35.45-27.5 35.27-27.05 35.1-26.6 34.75-26.3L34.75-26.3 28.25-20.9Q28.05-20.7 27.63-20.55 27.2-20.4 26.7-20.4L26.7-20.4 20.55-20.4 20.55-11.95Q20.55-10.9 21.2-10.48 21.85-10.05 23.1-10.05L23.1-10.05 33.15-10.05Q34.35-10.05 34.9-9.5 35.45-8.95 35.45-7.75L35.45-7.75 35.45-1.8Q35.45-1.15 35.27-0.7 35.1-0.25 34.75 0.05L34.75 0.05 28.25 5.45Q28.05 5.65 27.63 5.8 27.2 5.95 26.7 5.95ZM20.95 0L33.15 0Q34.1 0 34.52-0.43 34.95-0.85 34.95-1.8L34.95-1.8 34.95-7.75Q34.95-8.7 34.52-9.13 34.1-9.55 33.15-9.55L33.15-9.55 23.1-9.55Q21.55-9.55 20.8-10.13 20.05-10.7 20.05-11.95L20.05-11.95 20.05-23.85Q20.05-25.1 20.8-25.73 21.55-26.35 23.1-26.35L23.1-26.35 33.15-26.35Q34.1-26.35 34.52-26.78 34.95-27.2 34.95-28.15L34.95-28.15 34.95-34.2Q34.95-35.15 34.52-35.58 34.1-36 33.15-36L33.15-36 20.95-36Q14.7-36 11.68-33.48 8.65-30.95 8.65-25.75L8.65-25.75 8.65-10.2Q8.65-5 11.68-2.5 14.7 0 20.95 0L20.95 0ZM22.05-5L30.4-5 30.4-4.5 22.05-4.5Q17.2-4.5 15.63-6 14.05-7.5 14.05-10.95L14.05-10.95 14.05-24.95Q14.05-28.5 15.65-30 17.25-31.5 22.05-31.5L22.05-31.5 30.4-31.5 30.4-31 22.05-31Q17.65-31 16.1-29.63 14.55-28.25 14.55-24.95L14.55-24.95 14.55-10.95Q14.55-7.7 16.05-6.35 17.55-5 22.05-5L22.05-5ZM64.15 5.95L64.15 5.95 40.95 5.95Q39.75 5.95 39.2 5.4 38.65 4.85 38.65 3.65L38.65 3.65 38.65-28.75Q38.65-29.4 38.82-29.85 39-30.3 39.35-30.6L39.35-30.6 45.8-36.05Q46.05-36.25 46.47-36.38 46.9-36.5 47.4-36.5L47.4-36.5 70.6-36.5Q71.8-36.5 72.35-35.95 72.9-35.4 72.9-34.2L72.9-34.2 72.9-28.35Q72.9-27.7 72.72-27.25 72.55-26.8 72.2-26.5L72.2-26.5 67.9-22.95Q68.4-22.7 68.62-22.2 68.85-21.7 68.85-20.9L68.85-20.9 68.85-15.55Q68.85-14.9 68.67-14.45 68.5-14 68.15-13.7L68.15-13.7 63.7-9.95 70.6-9.95Q71.8-9.95 72.35-9.4 72.9-8.85 72.9-7.65L72.9-7.65 72.9-1.8Q72.9-1.15 72.72-0.7 72.55-0.25 72.2 0.05L72.2 0.05 65.7 5.45Q65.5 5.65 65.07 5.8 64.65 5.95 64.15 5.95ZM47.4 0L70.6 0Q71.55 0 71.97-0.43 72.4-0.85 72.4-1.8L72.4-1.8 72.4-7.65Q72.4-8.6 71.97-9.03 71.55-9.45 70.6-9.45L70.6-9.45 56.8-9.45 56.8-13.75 66.55-13.75Q67.5-13.75 67.92-14.18 68.35-14.6 68.35-15.55L68.35-15.55 68.35-20.9Q68.35-21.85 67.92-22.28 67.5-22.7 66.55-22.7L66.55-22.7 56.8-22.7 56.8-26.55 70.6-26.55Q71.55-26.55 71.97-26.98 72.4-27.4 72.4-28.35L72.4-28.35 72.4-34.2Q72.4-35.15 71.97-35.58 71.55-36 70.6-36L70.6-36 47.4-36Q46.45-36 46.02-35.58 45.6-35.15 45.6-34.2L45.6-34.2 45.6-1.8Q45.6-0.85 46.02-0.43 46.45 0 47.4 0L47.4 0ZM51.55-5L67.9-5 67.9-4.5 51.05-4.5 51.05-31.5 67.9-31.5 67.9-31 51.55-31 51.55-18.45 63.85-18.45 63.85-17.95 51.55-17.95 51.55-5ZM100.09-31L100.09-31 89.19-31 89.19-16.55 100.09-16.55Q103.19-16.55 104.25-18.05 105.3-19.55 105.3-22.3L105.3-22.3 105.3-25.8Q105.3-28.1 104.02-29.55 102.75-31 100.09-31ZM94.59-20.6L94.59-27 98.34-27Q99.64-27 100.09-26.33 100.55-25.65 100.55-24.65L100.55-24.65 100.55-22.95Q100.55-21.95 100.09-21.28 99.64-20.6 98.34-20.6L98.34-20.6 94.59-20.6ZM89.19-16.1L89.19-4.5 88.69-4.5 88.69-31.5 100.09-31.5Q103-31.5 104.39-29.88 105.8-28.25 105.8-25.8L105.8-25.8 105.8-22.35Q105.8-20.05 105.19-18.57 104.59-17.1 102.8-16.55L102.8-16.55 103.34-16.55Q106.4-16.55 107.9-15.18 109.4-13.8 109.4-11.2L109.4-11.2 109.4-4.5 108.9-4.5 108.9-11.2Q108.9-13.65 107.55-14.88 106.19-16.1 103.34-16.1L103.34-16.1 89.19-16.1ZM85.09 0L92.8 0Q93.75 0 94.17-0.43 94.59-0.85 94.59-1.8L94.59-1.8 94.59-11.6 101.59-11.6Q102.64-11.6 103.07-11.08 103.5-10.55 103.5-9.45L103.5-9.45 103.5-1.8Q103.5-0.85 103.92-0.43 104.34 0 105.3 0L105.3 0 113.05 0Q114 0 114.42-0.43 114.84-0.85 114.84-1.8L114.84-1.8 114.84-12.4Q114.84-15.55 113.17-17.45 111.5-19.35 108.8-19.65L108.8-19.65Q110.34-20.3 110.97-21.78 111.59-23.25 111.59-25.35L111.59-25.35 111.59-27.65Q111.59-31.35 109.47-33.68 107.34-36 101.75-36L101.75-36 85.09-36Q84.14-36 83.72-35.58 83.3-35.15 83.3-34.2L83.3-34.2 83.3-1.8Q83.3-0.85 83.72-0.43 84.14 0 85.09 0L85.09 0ZM94.39 0.05L94.39 0.05 87.89 5.45Q87.69 5.65 87.27 5.8 86.84 5.95 86.34 5.95L86.34 5.95 78.64 5.95Q77.44 5.95 76.89 5.4 76.34 4.85 76.34 3.65L76.34 3.65 76.34-28.75Q76.34-29.4 76.52-29.85 76.69-30.3 77.05-30.6L77.05-30.6 83.5-36.05Q83.75-36.25 84.17-36.38 84.59-36.5 85.09-36.5L85.09-36.5 101.75-36.5Q107.69-36.5 109.9-34.02 112.09-31.55 112.09-27.65L112.09-27.65 112.09-25.35Q112.09-23.5 111.65-22.13 111.19-20.75 110.19-19.9L110.19-19.9 110.15-19.9Q112.5-19.25 113.92-17.3 115.34-15.35 115.34-12.4L115.34-12.4 115.34-1.8Q115.34-1.15 115.17-0.7 115-0.25 114.65 0.05L114.65 0.05 108.15 5.45Q107.94 5.65 107.52 5.8 107.09 5.95 106.59 5.95L106.59 5.95 98.84 5.95Q97.64 5.95 97.09 5.4 96.55 4.85 96.55 3.65L96.55 3.65 96.55-4Q96.55-4.8 96.25-5.23 95.94-5.65 95.14-5.65L95.14-5.65 95.09-5.65 95.09-1.8Q95.09-1.15 94.92-0.7 94.75-0.25 94.39 0.05ZM143.99 5.95L143.99 5.95 120.79 5.95Q119.59 5.95 119.04 5.4 118.49 4.85 118.49 3.65L118.49 3.65 118.49-28.75Q118.49-29.4 118.67-29.85 118.84-30.3 119.19-30.6L119.19-30.6 125.64-36.05Q125.89-36.25 126.32-36.38 126.74-36.5 127.24-36.5L127.24-36.5 150.44-36.5Q151.64-36.5 152.19-35.95 152.74-35.4 152.74-34.2L152.74-34.2 152.74-28.35Q152.74-27.7 152.57-27.25 152.39-26.8 152.04-26.5L152.04-26.5 147.74-22.95Q148.24-22.7 148.47-22.2 148.69-21.7 148.69-20.9L148.69-20.9 148.69-15.55Q148.69-14.9 148.52-14.45 148.34-14 147.99-13.7L147.99-13.7 143.54-9.95 150.44-9.95Q151.64-9.95 152.19-9.4 152.74-8.85 152.74-7.65L152.74-7.65 152.74-1.8Q152.74-1.15 152.57-0.7 152.39-0.25 152.04 0.05L152.04 0.05 145.54 5.45Q145.34 5.65 144.92 5.8 144.49 5.95 143.99 5.95ZM127.24 0L150.44 0Q151.39 0 151.82-0.43 152.24-0.85 152.24-1.8L152.24-1.8 152.24-7.65Q152.24-8.6 151.82-9.03 151.39-9.45 150.44-9.45L150.44-9.45 136.64-9.45 136.64-13.75 146.39-13.75Q147.34-13.75 147.77-14.18 148.19-14.6 148.19-15.55L148.19-15.55 148.19-20.9Q148.19-21.85 147.77-22.28 147.34-22.7 146.39-22.7L146.39-22.7 136.64-22.7 136.64-26.55 150.44-26.55Q151.39-26.55 151.82-26.98 152.24-27.4 152.24-28.35L152.24-28.35 152.24-34.2Q152.24-35.15 151.82-35.58 151.39-36 150.44-36L150.44-36 127.24-36Q126.29-36 125.87-35.58 125.44-35.15 125.44-34.2L125.44-34.2 125.44-1.8Q125.44-0.85 125.87-0.43 126.29 0 127.24 0L127.24 0ZM131.39-5L147.74-5 147.74-4.5 130.89-4.5 130.89-31.5 147.74-31.5 147.74-31 131.39-31 131.39-18.45 143.69-18.45 143.69-17.95 131.39-17.95 131.39-5ZM177.69 5.95L158.49 5.95Q157.29 5.95 156.74 5.4 156.19 4.85 156.19 3.65L156.19 3.65 156.19-28.75Q156.19-29.4 156.37-29.85 156.54-30.3 156.89-30.6L156.89-30.6 163.34-36.05Q163.59-36.25 164.01-36.38 164.44-36.5 164.94-36.5L164.94-36.5 180.89-36.5Q186.09-36.5 188.54-34.48 190.99-32.45 190.99-28.35L190.99-28.35 190.99-25.95Q190.99-24.2 190.51-22.95 190.04-21.7 189.09-20.95L189.09-20.95 188.94-20.85Q191.64-20.25 192.99-18.28 194.34-16.3 194.34-12.8L194.34-12.8 194.34-8.2Q194.34-5.95 193.69-4.33 193.04-2.7 191.74-1.6L191.74-1.6 185.29 3.85Q184.04 4.9 182.14 5.43 180.24 5.95 177.69 5.95L177.69 5.95ZM164.94 0L184.14 0Q189.09 0 191.47-2 193.84-4 193.84-8.2L193.84-8.2 193.84-12.8Q193.84-16.45 192.29-18.35 190.74-20.25 187.54-20.55L187.54-20.55Q189.04-21.2 189.76-22.53 190.49-23.85 190.49-25.95L190.49-25.95 190.49-28.35Q190.49-32.25 188.14-34.13 185.79-36 180.89-36L180.89-36 164.94-36Q163.99-36 163.56-35.58 163.14-35.15 163.14-34.2L163.14-34.2 163.14-1.8Q163.14-0.85 163.56-0.43 163.99 0 164.94 0L164.94 0ZM182.14-4.5L182.14-4.5 168.69-4.5 168.69-31.5 178.84-31.5Q180.89-31.5 182.19-31.08 183.49-30.65 184.19-29.93 184.89-29.2 185.14-28.25 185.39-27.3 185.39-26.2L185.39-26.2 185.39-23Q185.39-21.5 184.87-20.25 184.34-19 182.19-18.45L182.19-18.45Q184.24-18.45 185.54-18.03 186.84-17.6 187.54-16.82 188.24-16.05 188.47-15 188.69-13.95 188.69-12.7L188.69-12.7 188.69-9.5Q188.69-8.4 188.44-7.48 188.19-6.55 187.51-5.9 186.84-5.25 185.54-4.88 184.24-4.5 182.14-4.5ZM178.84-31L178.84-31 169.19-31 169.19-18.45 178.84-18.45Q180.89-18.45 182.09-18.82 183.29-19.2 183.91-19.83 184.54-20.45 184.72-21.28 184.89-22.1 184.89-23L184.89-23 184.89-26.2Q184.89-28.2 183.74-29.6 182.59-31 178.84-31ZM174.39-22.1L174.39-27.5 178.64-27.5Q179.59-27.5 180.06-27 180.54-26.5 180.54-25.5L180.54-25.5 180.54-24.1Q180.54-23.1 180.06-22.6 179.59-22.1 178.64-22.1L178.64-22.1 174.39-22.1ZM182.19-17.95L182.19-17.95 169.19-17.95 169.19-5 182.14-5Q185.89-5 187.04-6.23 188.19-7.45 188.19-9.5L188.19-9.5 188.19-12.7Q188.19-14.95 187.06-16.45 185.94-17.95 182.19-17.95ZM174.39-8.5L174.39-14.4 180.89-14.4Q181.84-14.4 182.31-13.93 182.79-13.45 182.79-12.45L182.79-12.45 182.79-10.5Q182.79-9.5 182.31-9 181.84-8.5 180.89-8.5L180.89-8.5 174.39-8.5ZM221.19-31L221.19-31 210.29-31 210.29-16.55 221.19-16.55Q224.29-16.55 225.34-18.05 226.39-19.55 226.39-22.3L226.39-22.3 226.39-25.8Q226.39-28.1 225.11-29.55 223.84-31 221.19-31ZM215.69-20.6L215.69-27 219.44-27Q220.74-27 221.19-26.33 221.64-25.65 221.64-24.65L221.64-24.65 221.64-22.95Q221.64-21.95 221.19-21.28 220.74-20.6 219.44-20.6L219.44-20.6 215.69-20.6ZM210.29-16.1L210.29-4.5 209.79-4.5 209.79-31.5 221.19-31.5Q224.09-31.5 225.49-29.88 226.89-28.25 226.89-25.8L226.89-25.8 226.89-22.35Q226.89-20.05 226.29-18.57 225.69-17.1 223.89-16.55L223.89-16.55 224.44-16.55Q227.49-16.55 228.99-15.18 230.49-13.8 230.49-11.2L230.49-11.2 230.49-4.5 229.99-4.5 229.99-11.2Q229.99-13.65 228.64-14.88 227.29-16.1 224.44-16.1L224.44-16.1 210.29-16.1ZM206.19 0L213.89 0Q214.84 0 215.26-0.43 215.69-0.85 215.69-1.8L215.69-1.8 215.69-11.6 222.69-11.6Q223.74-11.6 224.16-11.08 224.59-10.55 224.59-9.45L224.59-9.45 224.59-1.8Q224.59-0.85 225.01-0.43 225.44 0 226.39 0L226.39 0 234.14 0Q235.09 0 235.51-0.43 235.94-0.85 235.94-1.8L235.94-1.8 235.94-12.4Q235.94-15.55 234.26-17.45 232.59-19.35 229.89-19.65L229.89-19.65Q231.44-20.3 232.06-21.78 232.69-23.25 232.69-25.35L232.69-25.35 232.69-27.65Q232.69-31.35 230.56-33.68 228.44-36 222.84-36L222.84-36 206.19-36Q205.24-36 204.81-35.58 204.39-35.15 204.39-34.2L204.39-34.2 204.39-1.8Q204.39-0.85 204.81-0.43 205.24 0 206.19 0L206.19 0ZM215.49 0.05L215.49 0.05 208.99 5.45Q208.79 5.65 208.36 5.8 207.94 5.95 207.44 5.95L207.44 5.95 199.74 5.95Q198.54 5.95 197.99 5.4 197.44 4.85 197.44 3.65L197.44 3.65 197.44-28.75Q197.44-29.4 197.61-29.85 197.79-30.3 198.14-30.6L198.14-30.6 204.59-36.05Q204.84-36.25 205.26-36.38 205.69-36.5 206.19-36.5L206.19-36.5 222.84-36.5Q228.79-36.5 230.99-34.02 233.19-31.55 233.19-27.65L233.19-27.65 233.19-25.35Q233.19-23.5 232.74-22.13 232.29-20.75 231.29-19.9L231.29-19.9 231.24-19.9Q233.59-19.25 235.01-17.3 236.44-15.35 236.44-12.4L236.44-12.4 236.44-1.8Q236.44-1.15 236.26-0.7 236.09-0.25 235.74 0.05L235.74 0.05 229.24 5.45Q229.04 5.65 228.61 5.8 228.19 5.95 227.69 5.95L227.69 5.95 219.94 5.95Q218.74 5.95 218.19 5.4 217.64 4.85 217.64 3.65L217.64 3.65 217.64-4Q217.64-4.8 217.34-5.23 217.04-5.65 216.24-5.65L216.24-5.65 216.19-5.65 216.19-1.8Q216.19-1.15 216.01-0.7 215.84-0.25 215.49 0.05ZM274.54-1.85L268.09 3.55Q266.34 5.05 263.19 5.88 260.04 6.7 255.09 6.7L255.09 6.7Q250.19 6.7 247.06 5.68 243.94 4.65 242.16 2.95 240.39 1.25 239.71-0.95 239.03-3.15 239.03-5.5L239.03-5.5 239.03-21.05Q239.03-23.35 239.69-25.33 240.34-27.3 242.03-28.7L242.03-28.7 248.53-34.1Q250.28-35.6 253.41-36.43 256.54-37.25 261.54-37.25L261.54-37.25Q266.44-37.25 269.56-36.45 272.69-35.65 274.46-34.23 276.24-32.8 276.88-30.83 277.54-28.85 277.54-26.5L277.54-26.5 277.54-9.45Q277.54-7.15 276.88-5.2 276.24-3.25 274.54-1.85L274.54-1.85ZM277.04-9.45L277.04-9.45 277.04-26.5Q277.04-28.8 276.36-30.68 275.69-32.55 273.96-33.9 272.24-35.25 269.21-36 266.19-36.75 261.54-36.75L261.54-36.75Q256.88-36.75 253.84-36 250.78-35.25 249.06-33.9 247.34-32.55 246.66-30.68 245.99-28.8 245.99-26.5L245.99-26.5 245.99-9.45Q245.99-7.15 246.66-5.28 247.34-3.4 249.06-2.08 250.78-0.75 253.84 0 256.88 0.75 261.54 0.75L261.54 0.75Q266.19 0.75 269.21 0 272.24-0.75 273.96-2.08 275.69-3.4 276.36-5.28 277.04-7.15 277.04-9.45ZM271.59-25.35L271.59-10.6Q271.59-7.6 269.44-5.73 267.29-3.85 261.44-3.85L261.44-3.85Q255.59-3.85 253.49-5.73 251.39-7.6 251.39-10.6L251.39-10.6 251.39-25.35Q251.39-28.35 253.49-30.23 255.59-32.1 261.44-32.1L261.44-32.1Q267.29-32.1 269.44-30.23 271.59-28.35 271.59-25.35L271.59-25.35ZM251.89-25.35L251.89-10.6Q251.89-7.8 253.89-6.08 255.89-4.35 261.44-4.35L261.44-4.35Q266.99-4.35 269.04-6.08 271.09-7.8 271.09-10.6L271.09-10.6 271.09-25.35Q271.09-28.15 269.04-29.88 266.99-31.6 261.44-31.6L261.44-31.6Q255.89-31.6 253.89-29.88 251.89-28.15 251.89-25.35L251.89-25.35ZM257.34-11.25L257.34-11.25 257.34-24.7Q257.34-25.65 258.09-26.33 258.84-27 261.54-27L261.54-27Q264.24-27 264.99-26.33 265.74-25.65 265.74-24.7L265.74-24.7 265.74-11.25Q265.74-10.25 264.99-9.58 264.24-8.9 261.54-8.9L261.54-8.9Q258.84-8.9 258.09-9.58 257.34-10.25 257.34-11.25ZM257.84-20.7L257.84-11.25Q257.84-10.75 258.04-10.38 258.24-10 258.79-9.75L258.79-9.75 258.79-19.25Q258.79-19.75 258.59-20.13 258.38-20.5 257.84-20.7L257.84-20.7Z" fill="#35185a" data-fill-palette-color="primary"></path></g></svg></g></svg></g><g transform="matrix(1,0,0,1,0,77.96385217671988)"><svg viewBox="0 0 232.20979200000002 15.715177611934282" height="15.715177611934282" width="232.20979200000002"><g transform="matrix(1,0,0,1,0,0)"><svg width="232.20979200000002" viewBox="1.4 -36.75 554.0655555555556 37.5" height="15.715177611934282" data-palette-color="#35185a"><path d="M20.45 0L20.45 0 12.35 0Q11.4 0 10.98-0.43 10.55-0.85 10.55-1.8L10.55-1.8 10.55-26.35 3.2-26.35Q2.25-26.35 1.83-26.78 1.4-27.2 1.4-28.15L1.4-28.15 1.4-34.2Q1.4-35.15 1.83-35.58 2.25-36 3.2-36L3.2-36 29.6-36Q30.55-36 30.98-35.58 31.4-35.15 31.4-34.2L31.4-34.2 31.4-28.15Q31.4-27.2 30.98-26.78 30.55-26.35 29.6-26.35L29.6-26.35 22.25-26.35 22.25-1.8Q22.25-0.85 21.83-0.43 21.4 0 20.45 0ZM16.15-31L16.15-4.5 16.65-4.5 16.65-31 26.9-31 26.9-31.5 5.9-31.5 5.9-31 16.15-31ZM66.9-34.2L66.9-9.45Q66.9-7.15 66.22-5.28 65.55-3.4 63.82-2.08 62.1-0.75 59.1 0 56.1 0.75 51.45 0.75L51.45 0.75Q46.8 0.75 43.8 0 40.8-0.75 39.07-2.08 37.35-3.4 36.67-5.28 36-7.15 36-9.45L36-9.45 36-34.2Q36-35.15 36.42-35.58 36.85-36 37.8-36L37.8-36 45.65-36Q46.6-36 47.02-35.58 47.45-35.15 47.45-34.2L47.45-34.2 47.45-11.4Q47.45-10.4 48.2-9.73 48.95-9.05 51.55-9.05L51.55-9.05Q54.2-9.05 54.95-9.73 55.7-10.4 55.7-11.4L55.7-11.4 55.7-34.2Q55.7-35.15 56.12-35.58 56.55-36 57.5-36L57.5-36 65.1-36Q66.05-36 66.47-35.58 66.9-35.15 66.9-34.2L66.9-34.2ZM42-31.5L41.5-31.5 41.5-10.65Q41.5-7.65 43.57-5.78 45.65-3.9 51.5-3.9L51.5-3.9Q57.35-3.9 59.45-5.78 61.55-7.65 61.55-10.65L61.55-10.65 61.55-31.5 61.05-31.5 61.05-10.65Q61.05-7.85 59.05-6.13 57.05-4.4 51.5-4.4L51.5-4.4Q45.95-4.4 43.97-6.13 42-7.85 42-10.65L42-10.65 42-31.5ZM79.45-31L90.35-31Q93-31 94.27-29.55 95.55-28.1 95.55-25.8L95.55-25.8 95.55-22.3Q95.55-19.55 94.5-18.05 93.45-16.55 90.35-16.55L90.35-16.55 79.45-16.55 79.45-31ZM88.6-27L84.85-27 84.85-20.6 88.6-20.6Q89.9-20.6 90.35-21.28 90.8-21.95 90.8-22.95L90.8-22.95 90.8-24.65Q90.8-25.65 90.35-26.33 89.9-27 88.6-27L88.6-27ZM78.95-4.5L79.45-4.5 79.45-16.1 93.6-16.1Q96.45-16.1 97.8-14.88 99.15-13.65 99.15-11.2L99.15-11.2 99.15-4.5 99.65-4.5 99.65-11.2Q99.65-13.8 98.15-15.18 96.65-16.55 93.6-16.55L93.6-16.55 93.05-16.55Q94.85-17.1 95.45-18.57 96.05-20.05 96.05-22.35L96.05-22.35 96.05-25.8Q96.05-28.25 94.65-29.88 93.25-31.5 90.35-31.5L90.35-31.5 78.95-31.5 78.95-4.5ZM83.05 0L83.05 0 75.35 0Q74.4 0 73.97-0.43 73.55-0.85 73.55-1.8L73.55-1.8 73.55-34.2Q73.55-35.15 73.97-35.58 74.4-36 75.35-36L75.35-36 92-36Q97.6-36 99.72-33.68 101.85-31.35 101.85-27.65L101.85-27.65 101.85-25.35Q101.85-23.25 101.22-21.78 100.6-20.3 99.05-19.65L99.05-19.65Q101.75-19.35 103.42-17.45 105.1-15.55 105.1-12.4L105.1-12.4 105.1-1.8Q105.1-0.85 104.67-0.43 104.25 0 103.3 0L103.3 0 95.55 0Q94.6 0 94.17-0.43 93.75-0.85 93.75-1.8L93.75-1.8 93.75-9.45Q93.75-10.55 93.32-11.08 92.9-11.6 91.85-11.6L91.85-11.6 84.85-11.6 84.85-1.8Q84.85-0.85 84.42-0.43 84 0 83.05 0ZM135.69-10.4L117.29-31.1Q117.04-31.35 116.89-31.45 116.74-31.55 116.54-31.55L116.54-31.55Q116.34-31.55 116.14-31.4 115.94-31.25 115.94-30.95L115.94-30.95 115.94-4.5 116.44-4.5 116.44-30.85Q116.44-30.9 116.47-30.95 116.49-31 116.54-31L116.54-31Q116.59-31 116.67-30.95 116.74-30.9 116.79-30.85L116.79-30.85 135.69-9.65 135.69-4.5 136.19-4.5 136.19-31.5 135.69-31.5 135.69-10.4ZM119.99 0L119.99 0 112.49 0Q111.54 0 111.12-0.43 110.69-0.85 110.69-1.8L110.69-1.8 110.69-34.2Q110.69-35.15 111.12-35.58 111.54-36 112.49-36L112.49-36 117.69-36Q118.64-36 119.32-35.7 119.99-35.4 120.64-34.65L120.64-34.65 130.34-23.55 130.34-34.2Q130.34-35.15 130.77-35.58 131.19-36 132.14-36L132.14-36 139.64-36Q140.59-36 141.02-35.58 141.44-35.15 141.44-34.2L141.44-34.2 141.44-1.8Q141.44-0.85 141.02-0.43 140.59 0 139.64 0L139.64 0 132.14 0Q131.19 0 130.77-0.43 130.34-0.85 130.34-1.8L130.34-1.8 130.34-7.95 121.79-18.3 121.79-1.8Q121.79-0.85 121.37-0.43 120.94 0 119.99 0ZM190.09-26.5L190.09-9.45Q190.09-7.15 189.41-5.28 188.74-3.4 187.01-2.08 185.29-0.75 182.26 0 179.24 0.75 174.59 0.75L174.59 0.75Q169.94 0.75 166.89 0 163.84-0.75 162.11-2.08 160.39-3.4 159.71-5.28 159.04-7.15 159.04-9.45L159.04-9.45 159.04-26.5Q159.04-28.8 159.71-30.68 160.39-32.55 162.11-33.9 163.84-35.25 166.89-36 169.94-36.75 174.59-36.75L174.59-36.75Q179.24-36.75 182.26-36 185.29-35.25 187.01-33.9 188.74-32.55 189.41-30.68 190.09-28.8 190.09-26.5L190.09-26.5ZM184.64-10.6L184.64-10.6 184.64-25.35Q184.64-28.35 182.49-30.23 180.34-32.1 174.49-32.1L174.49-32.1Q168.64-32.1 166.54-30.23 164.44-28.35 164.44-25.35L164.44-25.35 164.44-10.6Q164.44-7.6 166.54-5.73 168.64-3.85 174.49-3.85L174.49-3.85Q180.34-3.85 182.49-5.73 184.64-7.6 184.64-10.6ZM164.94-10.6L164.94-10.6 164.94-25.35Q164.94-28.15 166.94-29.88 168.94-31.6 174.49-31.6L174.49-31.6Q180.04-31.6 182.09-29.88 184.14-28.15 184.14-25.35L184.14-25.35 184.14-10.6Q184.14-7.8 182.09-6.08 180.04-4.35 174.49-4.35L174.49-4.35Q168.94-4.35 166.94-6.08 164.94-7.8 164.94-10.6ZM170.39-24.7L170.39-11.25Q170.39-10.25 171.14-9.58 171.89-8.9 174.59-8.9L174.59-8.9Q177.29-8.9 178.04-9.58 178.79-10.25 178.79-11.25L178.79-11.25 178.79-24.7Q178.79-25.65 178.04-26.33 177.29-27 174.59-27L174.59-27Q171.89-27 171.14-26.33 170.39-25.65 170.39-24.7L170.39-24.7ZM221.44-10.4L203.04-31.1Q202.79-31.35 202.64-31.45 202.49-31.55 202.29-31.55L202.29-31.55Q202.09-31.55 201.89-31.4 201.69-31.25 201.69-30.95L201.69-30.95 201.69-4.5 202.19-4.5 202.19-30.85Q202.19-30.9 202.21-30.95 202.24-31 202.29-31L202.29-31Q202.34-31 202.41-30.95 202.49-30.9 202.54-30.85L202.54-30.85 221.44-9.65 221.44-4.5 221.94-4.5 221.94-31.5 221.44-31.5 221.44-10.4ZM205.74 0L205.74 0 198.24 0Q197.29 0 196.86-0.43 196.44-0.85 196.44-1.8L196.44-1.8 196.44-34.2Q196.44-35.15 196.86-35.58 197.29-36 198.24-36L198.24-36 203.44-36Q204.39-36 205.06-35.7 205.74-35.4 206.39-34.65L206.39-34.65 216.09-23.55 216.09-34.2Q216.09-35.15 216.51-35.58 216.94-36 217.89-36L217.89-36 225.39-36Q226.34-36 226.76-35.58 227.19-35.15 227.19-34.2L227.19-34.2 227.19-1.8Q227.19-0.85 226.76-0.43 226.34 0 225.39 0L225.39 0 217.89 0Q216.94 0 216.51-0.43 216.09-0.85 216.09-1.8L216.09-1.8 216.09-7.95 207.54-18.3 207.54-1.8Q207.54-0.85 207.11-0.43 206.69 0 205.74 0ZM261.83 0L261.83 0 253.73 0Q252.78 0 252.36-0.43 251.93-0.85 251.93-1.8L251.93-1.8 251.93-26.35 244.58-26.35Q243.63-26.35 243.21-26.78 242.78-27.2 242.78-28.15L242.78-28.15 242.78-34.2Q242.78-35.15 243.21-35.58 243.63-36 244.58-36L244.58-36 270.98-36Q271.93-36 272.36-35.58 272.78-35.15 272.78-34.2L272.78-34.2 272.78-28.15Q272.78-27.2 272.36-26.78 271.93-26.35 270.98-26.35L270.98-26.35 263.63-26.35 263.63-1.8Q263.63-0.85 263.21-0.43 262.78 0 261.83 0ZM257.53-31L257.53-4.5 258.03-4.5 258.03-31 268.28-31 268.28-31.5 247.28-31.5 247.28-31 257.53-31ZM283.03-31.5L283.03-4.5 283.53-4.5 283.53-17.75 302.73-17.75 302.73-4.5 303.23-4.5 303.23-31.5 302.73-31.5 302.73-18.25 283.53-18.25 283.53-31.5 283.03-31.5ZM287.18 0L287.18 0 279.43 0Q278.48 0 278.05-0.43 277.63-0.85 277.63-1.8L277.63-1.8 277.63-34.2Q277.63-35.15 278.05-35.58 278.48-36 279.43-36L279.43-36 287.18-36Q288.13-36 288.55-35.58 288.98-35.15 288.98-34.2L288.98-34.2 288.98-23.35 297.33-23.35 297.33-34.2Q297.33-35.15 297.75-35.58 298.18-36 299.13-36L299.13-36 306.88-36Q307.83-36 308.25-35.58 308.68-35.15 308.68-34.2L308.68-34.2 308.68-1.8Q308.68-0.85 308.25-0.43 307.83 0 306.88 0L306.88 0 299.13 0Q298.18 0 297.75-0.43 297.33-0.85 297.33-1.8L297.33-1.8 297.33-12.9 288.98-12.9 288.98-1.8Q288.98-0.85 288.55-0.43 288.13 0 287.18 0ZM340.57 0L340.57 0 317.38 0Q316.43 0 316-0.43 315.57-0.85 315.57-1.8L315.57-1.8 315.57-34.2Q315.57-35.15 316-35.58 316.43-36 317.38-36L317.38-36 340.57-36Q341.52-36 341.95-35.58 342.38-35.15 342.38-34.2L342.38-34.2 342.38-28.35Q342.38-27.4 341.95-26.98 341.52-26.55 340.57-26.55L340.57-26.55 326.77-26.55 326.77-22.7 336.52-22.7Q337.48-22.7 337.9-22.28 338.32-21.85 338.32-20.9L338.32-20.9 338.32-15.55Q338.32-14.6 337.9-14.18 337.48-13.75 336.52-13.75L336.52-13.75 326.77-13.75 326.77-9.45 340.57-9.45Q341.52-9.45 341.95-9.03 342.38-8.6 342.38-7.65L342.38-7.65 342.38-1.8Q342.38-0.85 341.95-0.43 341.52 0 340.57 0ZM337.88-4.5L337.88-5 321.52-5 321.52-17.95 333.82-17.95 333.82-18.45 321.52-18.45 321.52-31 337.88-31 337.88-31.5 321.02-31.5 321.02-4.5 337.88-4.5ZM369.07 0L369.07 0 361.32 0Q360.37 0 359.94-0.43 359.52-0.85 359.52-1.8L359.52-1.8 359.52-34.2Q359.52-35.15 359.94-35.58 360.37-36 361.32-36L361.32-36 376.62-36Q383.42-36 385.92-33.3 388.42-30.6 388.42-26.25L388.42-26.25 388.42-19.85Q388.42-15.5 385.92-12.8 383.42-10.1 376.62-10.1L376.62-10.1 370.87-10.1 370.87-1.8Q370.87-0.85 370.44-0.43 370.02 0 369.07 0ZM365.62-14.35L375.92-14.35Q378.27-14.35 379.75-14.85 381.22-15.35 382.02-16.23 382.82-17.1 383.12-18.32 383.42-19.55 383.42-21L383.42-21 383.42-24.7Q383.42-26.15 383.12-27.4 382.82-28.65 382.02-29.55 381.22-30.45 379.75-30.98 378.27-31.5 375.92-31.5L375.92-31.5 365.12-31.5 365.12-4.5 365.62-4.5 365.62-14.35ZM375.92-14.85L365.62-14.85 365.62-31 375.92-31Q378.12-31 379.5-30.53 380.87-30.05 381.62-29.2 382.37-28.35 382.64-27.2 382.92-26.05 382.92-24.7L382.92-24.7 382.92-21Q382.92-19.65 382.64-18.53 382.37-17.4 381.62-16.57 380.87-15.75 379.5-15.3 378.12-14.85 375.92-14.85L375.92-14.85ZM375.27-26.65L370.77-26.65 370.77-19.1 375.27-19.1Q376.72-19.1 377.17-19.85 377.62-20.6 377.62-21.55L377.62-21.55 377.62-24.2Q377.62-25.15 377.17-25.9 376.72-26.65 375.27-26.65L375.27-26.65ZM424.12-26.5L424.12-9.45Q424.12-7.15 423.44-5.28 422.77-3.4 421.04-2.08 419.32-0.75 416.29 0 413.27 0.75 408.62 0.75L408.62 0.75Q403.97 0.75 400.92 0 397.87-0.75 396.14-2.08 394.42-3.4 393.74-5.28 393.07-7.15 393.07-9.45L393.07-9.45 393.07-26.5Q393.07-28.8 393.74-30.68 394.42-32.55 396.14-33.9 397.87-35.25 400.92-36 403.97-36.75 408.62-36.75L408.62-36.75Q413.27-36.75 416.29-36 419.32-35.25 421.04-33.9 422.77-32.55 423.44-30.68 424.12-28.8 424.12-26.5L424.12-26.5ZM418.67-10.6L418.67-10.6 418.67-25.35Q418.67-28.35 416.52-30.23 414.37-32.1 408.52-32.1L408.52-32.1Q402.67-32.1 400.57-30.23 398.47-28.35 398.47-25.35L398.47-25.35 398.47-10.6Q398.47-7.6 400.57-5.73 402.67-3.85 408.52-3.85L408.52-3.85Q414.37-3.85 416.52-5.73 418.67-7.6 418.67-10.6ZM398.97-10.6L398.97-10.6 398.97-25.35Q398.97-28.15 400.97-29.88 402.97-31.6 408.52-31.6L408.52-31.6Q414.07-31.6 416.12-29.88 418.17-28.15 418.17-25.35L418.17-25.35 418.17-10.6Q418.17-7.8 416.12-6.08 414.07-4.35 408.52-4.35L408.52-4.35Q402.97-4.35 400.97-6.08 398.97-7.8 398.97-10.6ZM404.42-24.7L404.42-11.25Q404.42-10.25 405.17-9.58 405.92-8.9 408.62-8.9L408.62-8.9Q411.32-8.9 412.07-9.58 412.82-10.25 412.82-11.25L412.82-11.25 412.82-24.7Q412.82-25.65 412.07-26.33 411.32-27 408.62-27L408.62-27Q405.92-27 405.17-26.33 404.42-25.65 404.42-24.7L404.42-24.7ZM448.97-17.25L448.97-17.25 446.72-17.25Q445.92-17.25 445.42-16.78 444.92-16.3 444.27-14.9L444.27-14.9 440.17-5.7Q439.97-5.2 439.57-5.1 439.17-5 438.82-5L438.82-5 438.57-5Q438.17-5 437.82-5.33 437.47-5.65 437.42-6.05L437.42-6.05 436.17-11.75Q435.97-12.7 435.94-14.2 435.92-15.7 435.92-16.8L435.92-16.8 435.92-31.5 435.42-31.5 435.42-16.75Q435.42-15.65 435.44-14.15 435.47-12.65 435.67-11.7L435.67-11.7 436.92-6.05Q437.12-5.25 437.54-4.88 437.97-4.5 438.57-4.5L438.57-4.5 438.92-4.5Q439.37-4.5 439.87-4.67 440.37-4.85 440.57-5.35L440.57-5.35 444.67-14.65Q445.27-16 445.69-16.38 446.12-16.75 446.72-16.75L446.72-16.75 448.97-16.75Q449.57-16.75 449.99-16.38 450.42-16 451.02-14.65L451.02-14.65 455.12-5.35Q455.32-4.85 455.82-4.67 456.32-4.5 456.77-4.5L456.77-4.5 457.12-4.5Q457.72-4.5 458.14-4.88 458.57-5.25 458.77-6.05L458.77-6.05 460.02-11.7Q460.22-12.65 460.24-14.15 460.27-15.65 460.27-16.75L460.27-16.75 460.27-31.5 459.77-31.5 459.77-16.8Q459.77-15.7 459.74-14.2 459.72-12.7 459.52-11.75L459.52-11.75 458.27-6.05Q458.22-5.65 457.87-5.33 457.52-5 457.12-5L457.12-5 456.87-5Q456.52-5 456.12-5.1 455.72-5.2 455.52-5.7L455.52-5.7 451.42-14.9Q450.77-16.3 450.27-16.78 449.77-17.25 448.97-17.25ZM456.32-36L456.32-36 463.77-36Q464.72-36 465.14-35.58 465.57-35.15 465.57-34.2L465.57-34.2 465.57-14.8Q465.57-13.2 465.44-11.83 465.32-10.45 464.67-8.6L464.67-8.6 462.17-1.8Q461.92-1.05 461.44-0.53 460.97 0 460.17 0L460.17 0 453.52 0Q452.72 0 452.07-0.35 451.42-0.7 451.22-1.5L451.22-1.5 448.92-9.65Q448.77-10.15 448.54-10.33 448.32-10.5 448.02-10.5L448.02-10.5 447.57-10.5Q447.27-10.5 447.04-10.33 446.82-10.15 446.67-9.65L446.67-9.65 444.32-1.5Q444.12-0.75 443.57-0.38 443.02 0 442.22 0L442.22 0 435.62 0Q434.82 0 434.24-0.5 433.67-1 433.42-1.8L433.42-1.8 430.92-8.7Q430.27-10.55 430.14-11.93 430.02-13.3 430.02-14.9L430.02-14.9 430.02-34.2Q430.02-35.15 430.44-35.58 430.87-36 431.82-36L431.82-36 439.52-36Q440.47-36 440.89-35.58 441.32-35.15 441.32-34.2L441.32-34.2 441.32-15.8 444.22-22.1Q444.62-22.95 445.27-23.3 445.92-23.65 446.87-23.65L446.87-23.65 448.97-23.65Q449.92-23.65 450.57-23.3 451.22-22.95 451.62-22.1L451.62-22.1 454.52-15.8 454.52-34.2Q454.52-35.15 454.94-35.58 455.37-36 456.32-36ZM497.01 0L497.01 0 473.81 0Q472.86 0 472.44-0.43 472.01-0.85 472.01-1.8L472.01-1.8 472.01-34.2Q472.01-35.15 472.44-35.58 472.86-36 473.81-36L473.81-36 497.01-36Q497.96-36 498.39-35.58 498.81-35.15 498.81-34.2L498.81-34.2 498.81-28.35Q498.81-27.4 498.39-26.98 497.96-26.55 497.01-26.55L497.01-26.55 483.21-26.55 483.21-22.7 492.96-22.7Q493.91-22.7 494.34-22.28 494.76-21.85 494.76-20.9L494.76-20.9 494.76-15.55Q494.76-14.6 494.34-14.18 493.91-13.75 492.96-13.75L492.96-13.75 483.21-13.75 483.21-9.45 497.01-9.45Q497.96-9.45 498.39-9.03 498.81-8.6 498.81-7.65L498.81-7.65 498.81-1.8Q498.81-0.85 498.39-0.43 497.96 0 497.01 0ZM494.31-4.5L494.31-5 477.96-5 477.96-17.95 490.26-17.95 490.26-18.45 477.96-18.45 477.96-31 494.31-31 494.31-31.5 477.46-31.5 477.46-4.5 494.31-4.5ZM510.61-31L521.51-31Q524.16-31 525.44-29.55 526.71-28.1 526.71-25.8L526.71-25.8 526.71-22.3Q526.71-19.55 525.66-18.05 524.61-16.55 521.51-16.55L521.51-16.55 510.61-16.55 510.61-31ZM519.76-27L516.01-27 516.01-20.6 519.76-20.6Q521.06-20.6 521.51-21.28 521.96-21.95 521.96-22.95L521.96-22.95 521.96-24.65Q521.96-25.65 521.51-26.33 521.06-27 519.76-27L519.76-27ZM510.11-4.5L510.61-4.5 510.61-16.1 524.76-16.1Q527.61-16.1 528.96-14.88 530.31-13.65 530.31-11.2L530.31-11.2 530.31-4.5 530.81-4.5 530.81-11.2Q530.81-13.8 529.31-15.18 527.81-16.55 524.76-16.55L524.76-16.55 524.21-16.55Q526.01-17.1 526.61-18.57 527.21-20.05 527.21-22.35L527.21-22.35 527.21-25.8Q527.21-28.25 525.81-29.88 524.41-31.5 521.51-31.5L521.51-31.5 510.11-31.5 510.11-4.5ZM514.21 0L514.21 0 506.51 0Q505.56 0 505.14-0.43 504.71-0.85 504.71-1.8L504.71-1.8 504.71-34.2Q504.71-35.15 505.14-35.58 505.56-36 506.51-36L506.51-36 523.16-36Q528.76-36 530.88-33.68 533.01-31.35 533.01-27.65L533.01-27.65 533.01-25.35Q533.01-23.25 532.38-21.78 531.76-20.3 530.21-19.65L530.21-19.65Q532.91-19.35 534.59-17.45 536.26-15.55 536.26-12.4L536.26-12.4 536.26-1.8Q536.26-0.85 535.84-0.43 535.41 0 534.46 0L534.46 0 526.71 0Q525.76 0 525.34-0.43 524.91-0.85 524.91-1.8L524.91-1.8 524.91-9.45Q524.91-10.55 524.49-11.08 524.06-11.6 523.01-11.6L523.01-11.6 516.01-11.6 516.01-1.8Q516.01-0.85 515.59-0.43 515.16 0 514.21 0ZM552.86-13.1L552.86-13.1 545.11-13.1Q544.16-13.1 543.73-13.53 543.31-13.95 543.26-14.9L543.26-14.9 542.51-34.2Q542.46-35.15 542.86-35.58 543.26-36 544.21-36L544.21-36 553.76-36Q554.71-36 555.11-35.58 555.51-35.15 555.46-34.2L555.46-34.2 554.76-14.9Q554.71-13.95 554.26-13.53 553.81-13.1 552.86-13.1ZM549.26-31.5L548.76-31.5 548.76-17.6 549.26-17.6 549.26-31.5ZM553.61 0L553.61 0 544.41 0Q543.46 0 543.03-0.43 542.61-0.85 542.61-1.8L542.61-1.8 542.61-8.35Q542.61-9.3 543.03-9.73 543.46-10.15 544.41-10.15L544.41-10.15 553.61-10.15Q554.56-10.15 554.98-9.73 555.41-9.3 555.41-8.35L555.41-8.35 555.41-1.8Q555.41-0.85 554.98-0.43 554.56 0 553.61 0ZM548.76-4L549.26-4 549.26-6.15 548.76-6.15 548.76-4Z" opacity="1" transform="matrix(1,0,0,1,0,0)" fill="#35185a" class="slogan-text-1" data-fill-palette-color="secondary" id="text-1"></path></svg></g></svg></g></svg></g></svg></g><g><svg viewBox="0 0 229.56056802778338 229.56056802778338" height="229.56056802778338" width="229.56056802778338"><g><svg></svg></g><g id="icon-0"><svg viewBox="0 0 229.56056802778338 229.56056802778338" height="229.56056802778338" width="229.56056802778338"><g><path d="M0 114.78c0-63.391 51.389-114.78 114.78-114.78 63.391 0 114.78 51.389 114.781 114.78 0 63.391-51.389 114.78-114.781 114.781-63.391 0-114.78-51.389-114.78-114.781zM114.78 223.873c60.25 0 109.092-48.842 109.093-109.093 0-60.25-48.842-109.092-109.093-109.092-60.25 0-109.092 48.842-109.092 109.092 0 60.25 48.842 109.092 109.092 109.093z" data-fill-palette-color="accent" fill="#bb84e8" stroke="transparent"></path></g><g transform="matrix(1,0,0,1,46.311381749843804,46.311381749843804)"><svg viewBox="0 0 136.93780452809577 136.93780452809577" height="136.93780452809577" width="136.93780452809577"><g><svg xmlns="http://www.w3.org/2000/svg" xmlns:xlink="http://www.w3.org/1999/xlink" version="1.1" x="0" y="0" viewBox="0 0 100 100" enable-background="new 0 0 100 100" xml:space="preserve" height="136.93780452809577" width="136.93780452809577" class="icon-dxe-0" data-fill-palette-color="accent" id="dxe-0"><path d="M50 0C22.461 0 0 22.462 0 50 0 77.54 22.461 100 50 100S100 77.54 100 50C100 22.462 77.539 0 50 0M43.771 15.246C43.771 11.82 46.573 9.017 50 9.017S56.229 11.821 56.229 15.246V43.115C56.229 46.541 53.425 49.344 50 49.344 46.573 49.344 43.771 46.54 43.771 43.115zM49.999 84.591C30.899 84.591 15.409 69.102 15.409 50 15.409 40.152 20.034 31.771 26.642 25.47 32.59 20.836 40.642 28.965 34.815 34.816A21.4 21.4 0 0 0 28.524 50.001C28.524 61.859 38.141 71.479 49.999 71.479S71.475 61.86 71.475 50.001C71.475 44.287 69.748 39.852 66.108 36.004 63.061 32.99 60.071 28.942 64.043 24.93 68.62 20.298 73.704 25.021 76.879 28.528 82.26 34.627 84.59 41.229 84.59 50 84.59 69.102 69.1 84.591 49.999 84.591" fill="#bb84e8" data-fill-palette-color="accent"></path></svg></g></svg></g></svg></g></svg></g></svg></g><defs></defs></svg><rect width="395.52" height="138.64897404639927" fill="none" stroke="none" visibility="hidden"></rect></g></svg></g></svg>