<?xml version="1.0" encoding="UTF-8"?>
<!DOCTYPE svg PUBLIC "-//W3C//DTD SVG 1.1//EN" "http://www.w3.org/Graphics/SVG/1.1/DTD/svg11.dtd">
<svg xmlns="http://www.w3.org/2000/svg" version="1.1" width="1500px" height="435px" style="shape-rendering:geometricPrecision; text-rendering:geometricPrecision; image-rendering:optimizeQuality; fill-rule:evenodd; clip-rule:evenodd" xmlns:xlink="http://www.w3.org/1999/xlink">
<g><path style="opacity:0.494" fill="#fefffe" d="M 0.5,-0.5 C 40.8333,-0.5 81.1667,-0.5 121.5,-0.5C 121.5,144.5 121.5,289.5 121.5,434.5C 81.1667,434.5 40.8333,434.5 0.5,434.5C 0.5,289.5 0.5,144.5 0.5,-0.5 Z"/></g>
<g><path style="opacity:0.743" fill="#fefffe" d="M 146.5,-0.5 C 186.5,-0.5 226.5,-0.5 266.5,-0.5C 266.5,144.5 266.5,289.5 266.5,434.5C 226.5,434.5 186.5,434.5 146.5,434.5C 146.5,289.5 146.5,144.5 146.5,-0.5 Z"/></g>
<g><path style="opacity:0.992" fill="#fefffe" d="M 291.5,-0.5 C 331.5,-0.5 371.5,-0.5 411.5,-0.5C 411.5,144.5 411.5,289.5 411.5,434.5C 371.5,434.5 331.5,434.5 291.5,434.5C 291.5,289.5 291.5,144.5 291.5,-0.5 Z"/></g>
<g><path style="opacity:0.881" fill="#fefffe" d="M 641.5,64.5 C 651.506,64.3335 661.506,64.5002 671.5,65C 682.398,65.6979 691.231,70.1979 698,78.5C 698.667,80.5 699.333,82.5 700,84.5C 701.987,106.503 701.987,128.503 700,150.5C 699.241,153.785 697.908,156.785 696,159.5C 687.075,167.762 677.575,175.262 667.5,182C 646.733,188.684 626.4,187.684 606.5,179C 600.305,174.79 596.472,168.956 595,161.5C 594.333,141.167 594.333,120.833 595,100.5C 595.438,97.624 596.438,94.9573 598,92.5C 605.845,84.9899 614.012,77.8232 622.5,71C 628.59,67.738 634.924,65.5713 641.5,64.5 Z M 645.5,66.5 C 656.615,66.0048 667.615,66.8381 678.5,69C 687.1,70.8664 693.267,75.6998 697,83.5C 698.622,105.116 698.955,126.783 698,148.5C 696.423,155.745 692.256,160.911 685.5,164C 680.658,165.948 675.658,167.281 670.5,168C 661.167,168.667 651.833,168.667 642.5,168C 632.823,167.226 624.656,163.393 618,156.5C 617.333,155.167 616.667,153.833 616,152.5C 614.877,141.054 614.377,129.554 614.5,118C 614.377,106.446 614.877,94.9456 616,83.5C 617.378,78.7917 620.212,75.2917 624.5,73C 631.292,69.7258 638.292,67.5591 645.5,66.5 Z M 649.5,80.5 C 657.303,80.1896 664.97,81.0229 672.5,83C 677.838,85.0073 681.004,88.8406 682,94.5C 682.667,110.167 682.667,125.833 682,141.5C 680.167,147.333 676.333,151.167 670.5,153C 660.842,154.968 651.175,154.968 641.5,153C 636,151.5 632.5,148 631,142.5C 630.333,126.167 630.333,109.833 631,93.5C 631.7,89.9338 633.533,87.1005 636.5,85C 640.715,82.7632 645.048,81.2632 649.5,80.5 Z M 646.5,111.5 C 647.117,111.611 647.617,111.944 648,112.5C 648.667,121.167 648.667,129.833 648,138.5C 646.53,129.668 646.03,120.668 646.5,111.5 Z"/></g>
<g><path style="opacity:0.897" fill="#fefffe" d="M 486.5,66.5 C 496.506,66.3335 506.506,66.5002 516.5,67C 517,67.5 517.5,68 518,68.5C 518.333,81.5 518.667,94.5 519,107.5C 521.833,105.333 524.667,103.167 527.5,101C 529.473,100.505 531.473,100.338 533.5,100.5C 533.212,94.7711 533.546,89.1045 534.5,83.5C 540.647,78.5203 546.647,73.3537 552.5,68C 557.726,66.8819 563.059,66.3819 568.5,66.5C 573.167,66.6667 577.833,66.8333 582.5,67C 583.308,67.3076 583.975,67.8076 584.5,68.5C 585.656,91.1237 585.822,113.79 585,136.5C 582.267,146.364 578.934,156.031 575,165.5C 568.082,172.422 560.582,178.589 552.5,184C 544.103,184.87 535.77,184.537 527.5,183C 524.694,178.993 522.86,174.493 522,169.5C 516.324,175.518 509.824,180.351 502.5,184C 494.754,184.896 487.087,184.563 479.5,183C 477.383,181.269 475.883,179.102 475,176.5C 472.136,168.908 469.469,161.242 467,153.5C 466.333,130.167 466.333,106.833 467,83.5C 473.853,78.1696 480.353,72.5029 486.5,66.5 Z M 488.5,68.5 C 497.173,68.3336 505.84,68.5002 514.5,69C 515,69.5 515.5,70 516,70.5C 516.333,88.5 516.667,106.5 517,124.5C 520.273,118.288 523.273,111.954 526,105.5C 528.479,103.083 531.479,102.083 535,102.5C 538.521,102.083 541.521,103.083 544,105.5C 547.273,111.712 550.273,118.046 553,124.5C 553.18,106.456 553.68,88.4563 554.5,70.5C 555.025,69.8076 555.692,69.3076 556.5,69C 564.5,68.3333 572.5,68.3333 580.5,69C 581.308,69.3076 581.975,69.8076 582.5,70.5C 583.655,91.1234 583.821,111.79 583,132.5C 580.561,144.15 576.728,155.317 571.5,166C 563.118,166.803 554.785,166.636 546.5,165.5C 543.06,157.088 540.226,148.421 538,139.5C 535.16,136.629 532.826,136.963 531,140.5C 528.944,149.334 526.111,157.834 522.5,166C 514.5,166.667 506.5,166.667 498.5,166C 498,165.5 497.5,165 497,164.5C 493.269,155.308 489.936,145.974 487,136.5C 486.333,114.5 486.333,92.5 487,70.5C 487.717,69.9558 488.217,69.2891 488.5,68.5 Z"/></g>
<g><path style="opacity:0.893" fill="#fefffe" d="M 731.5,66.5 C 741.172,66.3335 750.839,66.5002 760.5,67C 761.308,67.3076 761.975,67.8076 762.5,68.5C 763.321,88.1233 763.821,107.79 764,127.5C 769.542,122.289 775.375,117.456 781.5,113C 790.833,112.333 800.167,112.333 809.5,113C 810.428,113.388 811.095,114.055 811.5,115C 812.645,131.802 812.812,148.635 812,165.5C 805.551,171.276 799.051,177.11 792.5,183C 779.4,184.139 766.233,184.639 753,184.5C 740.833,184.333 728.667,184.167 716.5,184C 714.899,183.727 713.399,183.227 712,182.5C 710.355,150.227 710.022,117.894 711,85.5C 717.376,78.6216 724.21,72.2883 731.5,66.5 Z M 733.5,68.5 C 741.84,68.3336 750.173,68.5003 758.5,69C 759.667,69.5 760.5,70.3333 761,71.5C 761.5,94.831 761.667,118.164 761.5,141.5C 768.167,141.5 774.833,141.5 781.5,141.5C 781.169,132.808 781.502,124.141 782.5,115.5C 791.167,114.167 799.833,114.167 808.5,115.5C 809.824,132.397 809.824,149.231 808.5,166C 782.928,166.828 757.428,166.661 732,165.5C 730.356,134.561 730.023,103.561 731,72.5C 731.48,70.867 732.313,69.5336 733.5,68.5 Z"/></g>
<g><path style="opacity:0.898" fill="#fefffe" d="M 840.5,66.5 C 861.169,66.3334 881.836,66.5 902.5,67C 914.607,68.4464 922.44,74.9464 926,86.5C 926.667,107.167 926.667,127.833 926,148.5C 925.101,152.538 923.434,156.205 921,159.5C 912.406,167.43 903.24,174.597 893.5,181C 887.992,182.851 882.325,183.851 876.5,184C 859.5,184.667 842.5,184.667 825.5,184C 823.671,183.727 822.171,182.893 821,181.5C 820.333,149.167 820.333,116.833 821,84.5C 827.396,78.3857 833.896,72.3857 840.5,66.5 Z M 842.5,68.5 C 861.17,68.3334 879.836,68.5001 898.5,69C 912.119,69.6309 920.619,76.4642 924,89.5C 924.667,108.167 924.667,126.833 924,145.5C 921.634,157.862 914.134,164.695 901.5,166C 881.833,166.667 862.167,166.667 842.5,166C 842,165.5 841.5,165 841,164.5C 840.333,133.167 840.333,101.833 841,70.5C 841.717,69.9558 842.217,69.2891 842.5,68.5 Z M 856.5,82.5 C 869.504,82.3334 882.504,82.5001 895.5,83C 902.904,83.9484 907.071,88.1151 908,95.5C 908.667,110.5 908.667,125.5 908,140.5C 906.947,146.553 903.447,150.387 897.5,152C 883.837,152.5 870.171,152.667 856.5,152.5C 856.5,129.167 856.5,105.833 856.5,82.5 Z"/></g>
<g><path style="opacity:0.887" fill="#fefffe" d="M 957.5,66.5 C 977.503,66.3334 997.503,66.5 1017.5,67C 1026.45,68.6194 1032.29,73.7861 1035,82.5C 1037,90.5 1037,98.5 1035,106.5C 1034.21,108.587 1033.04,110.421 1031.5,112C 1037.67,114.167 1041.83,118.333 1044,124.5C 1045.52,137.796 1045.86,151.129 1045,164.5C 1039.19,170.643 1033.02,176.477 1026.5,182C 1024.91,182.862 1023.25,183.529 1021.5,184C 1012.42,184.913 1003.42,184.58 994.5,183C 994,182.5 993.5,182 993,181.5C 992.667,172.5 992.333,163.5 992,154.5C 991.692,153.692 991.192,153.025 990.5,152.5C 989.895,157.577 989.062,162.577 988,167.5C 981.541,172.29 975.374,177.457 969.5,183C 960.242,184.584 950.909,184.917 941.5,184C 940.234,183.691 939.067,183.191 938,182.5C 936.348,150.252 936.015,117.919 937,85.5C 943.376,78.6216 950.21,72.2883 957.5,66.5 Z M 959.5,68.5 C 979.54,68.0747 999.54,68.5747 1019.5,70C 1025.45,71.892 1029.62,75.7254 1032,81.5C 1033.56,88.7527 1033.89,96.086 1033,103.5C 1032.04,107.468 1029.87,110.635 1026.5,113C 1034.59,114.759 1039.76,119.592 1042,127.5C 1042.67,140.167 1042.67,152.833 1042,165.5C 1032.91,166.65 1023.74,166.817 1014.5,166C 1014,165.5 1013.5,165 1013,164.5C 1012.81,155.119 1012.31,145.786 1011.5,136.5C 1010.62,135.749 1009.62,135.249 1008.5,135C 1001.17,134.5 993.841,134.334 986.5,134.5C 986.82,145.082 986.487,155.582 985.5,166C 976.5,166.667 967.5,166.667 958.5,166C 957.874,165.25 957.374,164.416 957,163.5C 956.333,132.833 956.333,102.167 957,71.5C 957.698,70.3094 958.531,69.3094 959.5,68.5 Z M 973.5,82.5 C 984.838,82.3335 996.172,82.5001 1007.5,83C 1014.96,86.829 1017.96,92.9957 1016.5,101.5C 1016.52,105.902 1016.02,110.235 1015,114.5C 1013.83,117 1012,118.833 1009.5,120C 997.562,121.415 985.562,121.915 973.5,121.5C 973.5,108.5 973.5,95.5 973.5,82.5 Z"/></g>
<g><path style="opacity:0.888" fill="#fefffe" d="M 1073.5,66.5 C 1097.5,66.3334 1121.5,66.5 1145.5,67C 1146,67.5 1146.5,68 1147,68.5C 1149,76.8333 1149,85.1667 1147,93.5C 1142.93,97.1189 1138.76,100.619 1134.5,104C 1135,104.5 1135.5,105 1136,105.5C 1136.67,113.167 1136.67,120.833 1136,128.5C 1132.47,132.369 1128.63,135.869 1124.5,139C 1131.5,139.333 1138.5,139.667 1145.5,140C 1146,140.5 1146.5,141 1147,141.5C 1149,149.833 1149,158.167 1147,166.5C 1140.79,172.375 1134.29,177.875 1127.5,183C 1115.4,184.137 1103.23,184.637 1091,184.5C 1079.83,184.333 1068.67,184.167 1057.5,184C 1056.23,183.691 1055.07,183.191 1054,182.5C 1052.36,150.227 1052.02,117.894 1053,85.5C 1059.38,78.6216 1066.21,72.2883 1073.5,66.5 Z M 1075.5,68.5 C 1098.17,68.3334 1120.84,68.5 1143.5,69C 1144,69.5 1144.5,70 1145,70.5C 1145.67,77.5 1145.67,84.5 1145,91.5C 1144.5,92 1144,92.5 1143.5,93C 1129.84,93.4999 1116.17,93.6666 1102.5,93.5C 1102.5,97.5 1102.5,101.5 1102.5,105.5C 1112.51,105.334 1122.51,105.5 1132.5,106C 1133,106.5 1133.5,107 1134,107.5C 1134.79,114.218 1134.63,120.884 1133.5,127.5C 1123.19,128.499 1112.85,128.832 1102.5,128.5C 1102.5,132.833 1102.5,137.167 1102.5,141.5C 1116.17,141.333 1129.84,141.5 1143.5,142C 1144,142.5 1144.5,143 1145,143.5C 1145.81,151.08 1145.65,158.58 1144.5,166C 1120.93,166.827 1097.43,166.66 1074,165.5C 1072.35,134.586 1072.02,103.586 1073,72.5C 1073.48,70.867 1074.31,69.5336 1075.5,68.5 Z"/></g>
<g><path style="opacity:0.89" fill="#fefffe" d="M 1193.5,66.5 C 1209.17,66.3334 1224.84,66.5001 1240.5,67C 1242.62,68.7309 1244.12,70.8976 1245,73.5C 1251.13,88.5597 1256.46,103.893 1261,119.5C 1261.67,135.167 1261.67,150.833 1261,166.5C 1253.92,172.948 1246.42,178.781 1238.5,184C 1229.42,184.913 1220.42,184.58 1211.5,183C 1211,182.5 1210.5,182 1210,181.5C 1209.5,174.174 1209.33,166.841 1209.5,159.5C 1208.5,159.5 1207.5,159.5 1206.5,159.5C 1206.72,162.39 1206.06,165.057 1204.5,167.5C 1197.93,173.572 1190.93,179.072 1183.5,184C 1174.42,184.913 1165.42,184.58 1156.5,183C 1155.87,182.25 1155.37,181.416 1155,180.5C 1154.33,165.5 1154.33,150.5 1155,135.5C 1160,118.16 1166,101.16 1173,84.5C 1179.73,78.2625 1186.56,72.2625 1193.5,66.5 Z M 1196.5,68.5 C 1210.17,68.3334 1223.84,68.5001 1237.5,69C 1240.38,70.2506 1242.21,72.4173 1243,75.5C 1248.28,89.0582 1253.28,102.725 1258,116.5C 1259.57,132.46 1259.9,148.46 1259,164.5C 1258.5,165 1258,165.5 1257.5,166C 1248.45,166.805 1239.45,166.639 1230.5,165.5C 1229.5,157.862 1229.17,150.196 1229.5,142.5C 1220.83,142.5 1212.17,142.5 1203.5,142.5C 1203.82,150.42 1203.48,158.253 1202.5,166C 1193.83,166.667 1185.17,166.667 1176.5,166C 1176,165.5 1175.5,165 1175,164.5C 1174.08,148.454 1174.41,132.454 1176,116.5C 1180.6,102.691 1185.6,89.0243 1191,75.5C 1191.97,72.3794 1193.8,70.046 1196.5,68.5 Z M 1206.5,82.5 C 1213.17,82.3337 1219.84,82.5004 1226.5,83C 1227.33,83.8333 1228.17,84.6667 1229,85.5C 1233.53,95.4175 1237.86,105.418 1242,115.5C 1242.99,120.118 1243.49,124.785 1243.5,129.5C 1225.83,129.5 1208.17,129.5 1190.5,129.5C 1190.28,123.676 1191.11,118.01 1193,112.5C 1196.65,102.025 1201.15,92.0245 1206.5,82.5 Z"/></g>
<g><path style="opacity:0.881" fill="#fefffe" d="M 1291.5,66.5 C 1301.51,66.3335 1311.51,66.5002 1321.5,67C 1323.55,67.9299 1325.05,69.4299 1326,71.5C 1328.33,76.8247 1331.16,81.8247 1334.5,86.5C 1341.38,79.1207 1349.05,72.6207 1357.5,67C 1367.5,66.3333 1377.5,66.3333 1387.5,67C 1388.7,67.9025 1389.53,69.0692 1390,70.5C 1390.98,102.894 1390.64,135.227 1389,167.5C 1382.12,173.383 1374.95,178.883 1367.5,184C 1358.09,184.917 1348.76,184.584 1339.5,183C 1338.87,182.25 1338.37,181.416 1338,180.5C 1337.67,167.833 1337.33,155.167 1337,142.5C 1333.2,147.152 1328.37,149.818 1322.5,150.5C 1322.67,155.844 1322.5,161.177 1322,166.5C 1315.79,172.375 1309.29,177.875 1302.5,183C 1297.75,184.077 1292.92,184.577 1288,184.5C 1282.5,184.7 1277.17,184.034 1272,182.5C 1270.36,150.227 1270.02,117.894 1271,85.5C 1277.38,78.6216 1284.21,72.2883 1291.5,66.5 Z M 1293.5,68.5 C 1302.94,68.0545 1312.27,68.5545 1321.5,70C 1326.71,78.2562 1331.55,86.7562 1336,95.5C 1338.33,98.1667 1340.67,98.1667 1343,95.5C 1347.45,86.7562 1352.29,78.2562 1357.5,70C 1362.39,68.8859 1367.39,68.3859 1372.5,68.5C 1376.83,68.6667 1381.17,68.8333 1385.5,69C 1386,69.5 1386.5,70 1387,70.5C 1387.83,102.405 1387.66,134.238 1386.5,166C 1377.26,166.817 1368.09,166.65 1359,165.5C 1357.69,148.258 1357.03,130.924 1357,113.5C 1353.79,120.086 1349.96,126.253 1345.5,132C 1341.5,132.667 1337.5,132.667 1333.5,132C 1332.07,131.535 1330.9,130.701 1330,129.5C 1327.4,123.911 1324.4,118.577 1321,113.5C 1320.67,130.5 1320.33,147.5 1320,164.5C 1319.5,165 1319,165.5 1318.5,166C 1309.59,166.816 1300.76,166.65 1292,165.5C 1290.36,134.895 1290.02,104.228 1291,73.5C 1291.33,71.4971 1292.17,69.8304 1293.5,68.5 Z"/></g>
<g><path style="opacity:0.873" fill="#fefffe" d="M 1421.5,66.5 C 1445.17,66.3334 1468.84,66.5 1492.5,67C 1493.67,67.5 1494.5,68.3333 1495,69.5C 1495.67,79.1667 1495.67,88.8333 1495,98.5C 1484.77,112.457 1473.93,125.957 1462.5,139C 1473.5,139.333 1484.5,139.667 1495.5,140C 1496,140.5 1496.5,141 1497,141.5C 1499,149.833 1499,158.167 1497,166.5C 1490.79,172.375 1484.29,177.875 1477.5,183C 1452.9,184.638 1428.23,184.971 1403.5,184C 1401.67,183.727 1400.17,182.893 1399,181.5C 1398.08,171.426 1398.41,161.426 1400,151.5C 1410.95,138.425 1421.79,125.259 1432.5,112C 1422.83,111.667 1413.17,111.333 1403.5,111C 1402.3,110.097 1401.47,108.931 1401,107.5C 1400.33,100.167 1400.33,92.8333 1401,85.5C 1407.38,78.6216 1414.21,72.2883 1421.5,66.5 Z M 1423.5,68.5 C 1445.84,68.3334 1468.17,68.5 1490.5,69C 1491.31,69.3076 1491.97,69.8076 1492.5,70.5C 1493.94,79.8619 1493.78,89.1952 1492,98.5C 1480.5,112.667 1469,126.833 1457.5,141C 1469.5,141.333 1481.5,141.667 1493.5,142C 1494,142.5 1494.5,143 1495,143.5C 1495.67,150.5 1495.67,157.5 1495,164.5C 1494.5,165 1494,165.5 1493.5,166C 1469.17,166.667 1444.83,166.667 1420.5,166C 1420,165.5 1419.5,165 1419,164.5C 1418.33,156.5 1418.33,148.5 1419,140.5C 1430.79,125.044 1442.95,109.878 1455.5,95C 1444.4,94.9555 1433.4,94.2889 1422.5,93C 1421.87,92.2496 1421.37,91.4162 1421,90.5C 1420.33,84.5 1420.33,78.5 1421,72.5C 1421.48,70.867 1422.31,69.5336 1423.5,68.5 Z"/></g>
<g><path style="opacity:0.594" fill="#fefffe" d="M 645.5,78.5 C 655.315,77.9267 664.982,78.76 674.5,81C 679.4,82.9018 682.567,86.4018 684,91.5C 684.667,108.833 684.667,126.167 684,143.5C 682.257,148.91 678.757,152.744 673.5,155C 659.754,158.916 646.421,157.916 633.5,152C 631.623,149.749 630.123,147.249 629,144.5C 628.333,126.5 628.333,108.5 629,90.5C 632.495,83.6755 637.995,79.6755 645.5,78.5 Z M 649.5,80.5 C 645.048,81.2632 640.715,82.7632 636.5,85C 633.533,87.1005 631.7,89.9338 631,93.5C 630.333,109.833 630.333,126.167 631,142.5C 632.5,148 636,151.5 641.5,153C 651.175,154.968 660.842,154.968 670.5,153C 676.333,151.167 680.167,147.333 682,141.5C 682.667,125.833 682.667,110.167 682,94.5C 681.004,88.8406 677.838,85.0073 672.5,83C 664.97,81.0229 657.303,80.1896 649.5,80.5 Z M 646.5,111.5 C 646.03,120.668 646.53,129.668 648,138.5C 648.667,129.833 648.667,121.167 648,112.5C 647.617,111.944 647.117,111.611 646.5,111.5 Z"/></g>
<g><path style="opacity:0.593" fill="#fefffe" d="M 500.5,80.5 C 502.322,97.471 503.156,114.804 503,132.5C 504.206,138.861 505.539,145.194 507,151.5C 509,152.833 511,152.833 513,151.5C 518.078,141.01 523.411,130.677 529,120.5C 532.409,119.378 535.909,119.211 539.5,120C 545.636,129.768 551.136,139.934 556,150.5C 557.884,152.576 560.051,152.91 562.5,151.5C 564.317,144.916 565.817,138.249 567,131.5C 567.167,114.49 567.667,97.4902 568.5,80.5C 569.666,98.4907 569.833,116.491 569,134.5C 567.922,140.557 566.589,146.557 565,152.5C 561.412,156.393 557.746,156.393 554,152.5C 549.614,142.061 544.447,132.061 538.5,122.5C 535.386,120.938 532.553,121.271 530,123.5C 525,133.5 520,143.5 515,153.5C 511.796,156.113 508.63,156.113 505.5,153.5C 503.43,147.652 501.93,141.652 501,135.5C 500.5,117.17 500.333,98.8364 500.5,80.5 Z"/></g>
<g><path style="opacity:0.49" fill="#fefffe" d="M 744.5,80.5 C 745.5,80.5 746.5,80.5 747.5,80.5C 747.5,104.5 747.5,128.5 747.5,152.5C 763.167,152.5 778.833,152.5 794.5,152.5C 794.168,143.475 794.502,134.475 795.5,125.5C 796.499,135.478 796.832,145.478 796.5,155.5C 779.167,155.5 761.833,155.5 744.5,155.5C 744.5,130.5 744.5,105.5 744.5,80.5 Z"/></g>
<g><path style="opacity:0.613" fill="#fefffe" d="M 854.5,80.5 C 869.17,80.3334 883.837,80.5001 898.5,81C 904.904,82.2815 908.737,86.1148 910,92.5C 910.667,109.5 910.667,126.5 910,143.5C 907.7,151.078 902.533,154.911 894.5,155C 881.171,155.5 867.837,155.667 854.5,155.5C 854.5,130.5 854.5,105.5 854.5,80.5 Z M 856.5,82.5 C 856.5,105.833 856.5,129.167 856.5,152.5C 870.171,152.667 883.837,152.5 897.5,152C 903.447,150.387 906.947,146.553 908,140.5C 908.667,125.5 908.667,110.5 908,95.5C 907.071,88.1151 902.904,83.9484 895.5,83C 882.504,82.5001 869.504,82.3334 856.5,82.5 Z"/></g>
<g><path style="opacity:0.555" fill="#fefffe" d="M 970.5,80.5 C 983.504,80.3334 996.504,80.5001 1009.5,81C 1014.1,82.5981 1016.93,85.7647 1018,90.5C 1018.67,98.1667 1018.67,105.833 1018,113.5C 1017.39,116.548 1015.89,119.048 1013.5,121C 1020.46,121.056 1025.3,124.223 1028,130.5C 1028.83,138.853 1028.67,147.187 1027.5,155.5C 1026.88,146.795 1026.04,138.128 1025,129.5C 1022.9,126.533 1020.07,124.7 1016.5,124C 1002.17,123.5 987.837,123.333 973.5,123.5C 973.5,134.167 973.5,144.833 973.5,155.5C 972.5,155.5 971.5,155.5 970.5,155.5C 970.5,130.5 970.5,105.5 970.5,80.5 Z M 973.5,82.5 C 973.5,95.5 973.5,108.5 973.5,121.5C 985.562,121.915 997.562,121.415 1009.5,120C 1012,118.833 1013.83,117 1015,114.5C 1016.02,110.235 1016.52,105.902 1016.5,101.5C 1017.96,92.9957 1014.96,86.829 1007.5,83C 996.172,82.5001 984.838,82.3335 973.5,82.5 Z"/></g>
<g><path style="opacity:0.5" fill="#fefffe" d="M 1086.5,80.5 C 1102.51,80.1672 1118.51,80.5006 1134.5,81.5C 1119.51,82.4993 1104.51,82.8327 1089.5,82.5C 1089.5,93.5 1089.5,104.5 1089.5,115.5C 1100.83,115.5 1112.17,115.5 1123.5,115.5C 1123.5,116.5 1123.5,117.5 1123.5,118.5C 1112.17,118.5 1100.83,118.5 1089.5,118.5C 1089.5,129.833 1089.5,141.167 1089.5,152.5C 1104.5,152.5 1119.5,152.5 1134.5,152.5C 1134.5,153.5 1134.5,154.5 1134.5,155.5C 1118.5,155.5 1102.5,155.5 1086.5,155.5C 1086.5,130.5 1086.5,105.5 1086.5,80.5 Z"/></g>
<g><path style="opacity:0.616" fill="#fefffe" d="M 1204.5,80.5 C 1212.51,80.3336 1220.51,80.5003 1228.5,81C 1229.33,81.8333 1230.17,82.6667 1231,83.5C 1236.23,94.6152 1240.89,105.948 1245,117.5C 1245.83,130.18 1245.67,142.846 1244.5,155.5C 1243.5,147.528 1243.17,139.528 1243.5,131.5C 1225.83,131.5 1208.17,131.5 1190.5,131.5C 1190.83,139.528 1190.5,147.528 1189.5,155.5C 1188.33,142.846 1188.17,130.18 1189,117.5C 1192.73,104.471 1197.89,92.1378 1204.5,80.5 Z M 1206.5,82.5 C 1201.15,92.0245 1196.65,102.025 1193,112.5C 1191.11,118.01 1190.28,123.676 1190.5,129.5C 1208.17,129.5 1225.83,129.5 1243.5,129.5C 1243.49,124.785 1242.99,120.118 1242,115.5C 1237.86,105.418 1233.53,95.4175 1229,85.5C 1228.17,84.6667 1227.33,83.8333 1226.5,83C 1219.84,82.5004 1213.17,82.3337 1206.5,82.5 Z"/></g>
<g><path style="opacity:0.54" fill="#fefffe" d="M 1305.5,80.5 C 1308.52,80.3354 1311.52,80.502 1314.5,81C 1321,90.8333 1327.5,100.667 1334,110.5C 1337.33,114.5 1340.67,114.5 1344,110.5C 1350.5,100.667 1357,90.8333 1363.5,81C 1366.55,80.1786 1369.55,80.3452 1372.5,81.5C 1373.49,106.122 1373.82,130.788 1373.5,155.5C 1372.5,155.5 1371.5,155.5 1370.5,155.5C 1370.5,131.167 1370.5,106.833 1370.5,82.5C 1367.96,82.1043 1365.79,82.771 1364,84.5C 1357.67,94.1667 1351.33,103.833 1345,113.5C 1341,117.5 1337,117.5 1333,113.5C 1326.42,104.004 1320.08,94.3377 1314,84.5C 1312.12,82.4237 1309.95,82.0903 1307.5,83.5C 1306.84,107.464 1306.18,131.464 1305.5,155.5C 1304.18,130.434 1304.18,105.434 1305.5,80.5 Z"/></g>
<g><path style="opacity:0.535" fill="#fefffe" d="M 1432.5,80.5 C 1447.84,80.3334 1463.17,80.5001 1478.5,81C 1480.12,85.4365 1479.62,89.6031 1477,93.5C 1462.42,111.737 1448.26,130.237 1434.5,149C 1435.34,150.011 1435.67,151.178 1435.5,152.5C 1451.83,152.5 1468.17,152.5 1484.5,152.5C 1484.5,153.5 1484.5,154.5 1484.5,155.5C 1467.83,155.667 1451.16,155.5 1434.5,155C 1432.01,151.353 1431.84,147.519 1434,143.5C 1446.67,127.5 1459.33,111.5 1472,95.5C 1474.49,92.6808 1476.32,89.5141 1477.5,86C 1477.41,84.8926 1477.08,83.8926 1476.5,83C 1461.47,83.1536 1446.8,82.3203 1432.5,80.5 Z"/></g>
<g><path style="opacity:0.918" fill="#fefffe" d="M 649.5,92.5 C 655.262,92.1493 660.928,92.6493 666.5,94C 667.126,94.7504 667.626,95.5838 668,96.5C 668.667,110.833 668.667,125.167 668,139.5C 664.761,142.26 660.928,143.593 656.5,143.5C 652.072,143.593 648.239,142.26 645,139.5C 644.333,125.167 644.333,110.833 645,96.5C 645.907,94.3909 647.407,93.0576 649.5,92.5 Z M 646.5,111.5 C 646.03,120.668 646.53,129.668 648,138.5C 648.667,129.833 648.667,121.167 648,112.5C 647.617,111.944 647.117,111.611 646.5,111.5 Z"/></g>
<g><path style="opacity:0.88" fill="#fefffe" d="M 986.5,92.5 C 1002.66,88.8224 1008,94.6557 1002.5,110C 997.177,110.499 991.844,110.666 986.5,110.5C 986.5,104.5 986.5,98.5 986.5,92.5 Z"/></g>
<g><path style="opacity:0.893" fill="#fefffe" d="M 870.5,93.5 C 876.842,93.3338 883.175,93.5005 889.5,94C 890.766,94.3095 891.933,94.8095 893,95.5C 894.134,102.9 894.634,110.4 894.5,118C 894.333,124.833 894.167,131.667 894,138.5C 893.167,139.333 892.333,140.167 891.5,141C 884.508,141.5 877.508,141.666 870.5,141.5C 870.5,125.5 870.5,109.5 870.5,93.5 Z"/></g>
<g><path style="opacity:0.881" fill="#fefffe" d="M 1212.5,94.5 C 1215.45,94.2229 1218.28,94.5562 1221,95.5C 1223.48,103.104 1225.65,110.771 1227.5,118.5C 1220.17,118.5 1212.83,118.5 1205.5,118.5C 1207.43,110.373 1209.76,102.373 1212.5,94.5 Z"/></g>
<g><path style="opacity:0.903" fill="#fefffe" d="M 486.5,195.5 C 508.169,195.333 529.836,195.5 551.5,196C 552.416,196.374 553.25,196.874 554,197.5C 555.601,205.395 555.934,213.395 555,221.5C 549.355,227.477 543.355,233.143 537,238.5C 536.5,248.494 536.334,258.494 536.5,268.5C 541.844,268.334 547.177,268.501 552.5,269C 553.701,269.903 554.535,271.069 555,272.5C 555.167,276.167 555.333,279.833 555.5,283.5C 555.604,287.947 555.104,292.28 554,296.5C 547.926,301.786 541.759,306.952 535.5,312C 524.093,313.147 512.593,313.647 501,313.5C 489.789,313.49 478.623,313.156 467.5,312.5C 466.808,311.975 466.308,311.308 466,310.5C 465.333,302.5 465.333,294.5 466,286.5C 471.21,281.049 476.876,276.049 483,271.5C 483.5,261.172 483.666,250.839 483.5,240.5C 478.156,240.666 472.823,240.499 467.5,240C 467,239.5 466.5,239 466,238.5C 465.333,230.167 465.333,221.833 466,213.5C 472.705,207.291 479.538,201.291 486.5,195.5 Z M 488.5,197.5 C 509.592,197.023 530.592,197.523 551.5,199C 552.814,206.775 552.814,214.608 551.5,222.5C 545.896,223.454 540.229,223.788 534.5,223.5C 534.5,239.167 534.5,254.833 534.5,270.5C 539.844,270.334 545.177,270.501 550.5,271C 551,271.5 551.5,272 552,272.5C 552.667,279.833 552.667,287.167 552,294.5C 550.933,295.191 549.766,295.691 548.5,296C 528.833,296.667 509.167,296.667 489.5,296C 488.234,295.691 487.067,295.191 486,294.5C 485.333,287.167 485.333,279.833 486,272.5C 486.5,272 487,271.5 487.5,271C 492.823,270.501 498.156,270.334 503.5,270.5C 503.5,254.833 503.5,239.167 503.5,223.5C 498.156,223.666 492.823,223.499 487.5,223C 487,222.5 486.5,222 486,221.5C 485.333,214.167 485.333,206.833 486,199.5C 486.995,198.934 487.828,198.267 488.5,197.5 Z"/></g>
<g><path style="opacity:0.911" fill="#fefffe" d="M 585.5,195.5 C 592.841,195.334 600.174,195.5 607.5,196C 608.833,196.667 610.167,197.333 611.5,198C 615,202.167 618.5,206.333 622,210.5C 627.557,205.309 633.39,200.476 639.5,196C 648.833,195.333 658.167,195.333 667.5,196C 668.308,196.308 668.975,196.808 669.5,197.5C 670.659,230.125 670.826,262.791 670,295.5C 663.793,301.375 657.293,306.875 650.5,312C 645.609,313.114 640.609,313.614 635.5,313.5C 630.391,313.614 625.391,313.114 620.5,312C 619.874,311.25 619.374,310.416 619,309.5C 618.963,302.332 618.296,295.332 617,288.5C 616.667,290.833 616.333,293.167 616,295.5C 609.413,302.091 602.247,307.924 594.5,313C 585.833,313.667 577.167,313.667 568.5,313C 567.069,312.535 565.903,311.701 565,310.5C 564.333,278.167 564.333,245.833 565,213.5C 571.73,207.262 578.564,201.262 585.5,195.5 Z M 587.5,197.5 C 593.176,197.334 598.843,197.501 604.5,198C 606.246,198.471 607.913,199.138 609.5,200C 619,210.833 628.5,221.667 638,232.5C 638.188,221.454 638.688,210.454 639.5,199.5C 640.376,198.749 641.376,198.249 642.5,198C 649.833,197.333 657.167,197.333 664.5,198C 665.624,198.249 666.624,198.749 667.5,199.5C 668.659,230.791 668.826,262.125 668,293.5C 667.5,294 667,294.5 666.5,295C 657.833,297 649.167,297 640.5,295C 640,294.5 639.5,294 639,293.5C 638.667,286.833 638.333,280.167 638,273.5C 630.333,264.167 622.667,254.833 615,245.5C 614.971,261.925 614.304,278.258 613,294.5C 608.688,296.046 604.188,296.713 599.5,296.5C 594.674,296.695 590.007,296.029 585.5,294.5C 584.341,263.209 584.174,231.875 585,200.5C 585.698,199.309 586.531,198.309 587.5,197.5 Z"/></g>
<g><path style="opacity:0.888" fill="#fefffe" d="M 724.5,195.5 C 740.17,195.333 755.837,195.5 771.5,196C 772.701,196.903 773.535,198.069 774,199.5C 774.934,207.605 774.601,215.605 773,223.5C 766.793,229.375 760.293,234.875 753.5,240C 746.842,240.5 740.175,240.666 733.5,240.5C 733.183,249.418 733.516,258.251 734.5,267C 746.763,268.273 759.097,268.94 771.5,269C 772,269.5 772.5,270 773,270.5C 774.601,278.395 774.934,286.395 774,294.5C 767.567,301.475 760.4,307.641 752.5,313C 738.167,313.667 723.833,313.667 709.5,313C 694.032,311.2 684.532,302.7 681,287.5C 680.049,267.782 680.383,248.115 682,228.5C 683.413,225.339 685.08,222.339 687,219.5C 694.112,214.022 700.946,208.189 707.5,202C 712.888,198.752 718.554,196.585 724.5,195.5 Z M 729.5,197.5 C 742.504,197.333 755.504,197.5 768.5,198C 769.416,198.374 770.25,198.874 771,199.5C 771.831,207.188 771.665,214.855 770.5,222.5C 758.117,223.02 745.783,223.853 733.5,225C 732.107,226.171 731.273,227.671 731,229.5C 730.333,241.167 730.333,252.833 731,264.5C 731.36,266.421 732.194,268.088 733.5,269.5C 745.454,270.313 757.454,270.813 769.5,271C 770,271.5 770.5,272 771,272.5C 771.813,280.08 771.647,287.58 770.5,295C 754.54,296.845 738.54,296.845 722.5,295C 710.417,293.249 703.25,286.416 701,274.5C 700.833,265.333 700.667,256.167 700.5,247C 700.382,236.444 700.882,225.944 702,215.5C 705.091,206.083 711.591,200.583 721.5,199C 724.365,198.817 727.031,198.317 729.5,197.5 Z"/></g>
<g><path style="opacity:0.678" fill="#fefffe" d="M 496.5,209.5 C 511.515,209.167 526.515,209.501 541.5,210.5C 534.532,211.497 527.532,211.83 520.5,211.5C 520.5,235.167 520.5,258.833 520.5,282.5C 527.532,282.17 534.532,282.503 541.5,283.5C 526.5,284.833 511.5,284.833 496.5,283.5C 503.803,282.503 511.137,282.169 518.5,282.5C 518.5,258.833 518.5,235.167 518.5,211.5C 510.757,212.13 503.424,211.463 496.5,209.5 Z"/></g>
<g><path style="opacity:0.617" fill="#fefffe" d="M 598.5,209.5 C 601.325,209.081 603.491,210.081 605,212.5C 620.667,230.167 636.333,247.833 652,265.5C 652.167,246.824 652.667,228.158 653.5,209.5C 654.833,234.5 654.833,259.5 653.5,284.5C 652.671,279.533 652.171,274.533 652,269.5C 635,250.5 618,231.5 601,212.5C 600.833,236.507 600.333,260.507 599.5,284.5C 598.5,259.509 598.167,234.509 598.5,209.5 Z"/></g>
<g><path style="opacity:0.621" fill="#fefffe" d="M 727.5,209.5 C 738.52,209.168 749.52,209.501 760.5,210.5C 750.517,211.332 740.517,211.832 730.5,212C 722.439,212.397 717.939,216.563 717,224.5C 716.075,241.212 716.408,257.879 718,274.5C 719.563,277.728 722.063,279.895 725.5,281C 737.142,282.028 748.809,282.862 760.5,283.5C 749.515,284.666 738.515,284.832 727.5,284C 722.388,283.367 718.555,280.867 716,276.5C 714.372,257.899 714.039,239.232 715,220.5C 716.895,214.097 721.062,210.431 727.5,209.5 Z"/></g>
<g><path style="opacity:0.641" fill="#fefffe" d="M 558.5,346.5 C 563.159,346.015 564.492,347.848 562.5,352C 557.728,352.81 556.395,350.977 558.5,346.5 Z"/></g>
<g><path style="opacity:0.641" fill="#fefffe" d="M 625.5,346.5 C 630.159,346.015 631.492,347.848 629.5,352C 624.728,352.81 623.395,350.977 625.5,346.5 Z"/></g>
<g><path style="opacity:0.641" fill="#fefffe" d="M 665.5,346.5 C 670.376,345.404 672.043,347.071 670.5,351.5C 666.072,353.052 664.405,351.386 665.5,346.5 Z"/></g>
<g><path style="opacity:0.803" fill="#fefffe" d="M 633.5,347.5 C 635.167,347.5 636.833,347.5 638.5,347.5C 638.334,355.174 638.5,362.841 639,370.5C 641.097,372.805 640.597,374.472 637.5,375.5C 636.252,374.96 635.085,374.293 634,373.5C 633.5,364.84 633.334,356.173 633.5,347.5 Z"/></g>
<g><path style="opacity:0.811" fill="#fefffe" d="M 650.5,347.5 C 652.167,347.5 653.833,347.5 655.5,347.5C 655.5,356.5 655.5,365.5 655.5,374.5C 652.556,373.16 649.889,373.493 647.5,375.5C 646.205,374.902 644.872,374.402 643.5,374C 640.843,368.936 640.343,363.769 642,358.5C 643.93,355.604 646.43,354.604 649.5,355.5C 650.48,352.914 650.813,350.247 650.5,347.5 Z M 647.5,359.5 C 648.5,359.5 649.5,359.5 650.5,359.5C 650.665,362.85 650.498,366.183 650,369.5C 649,370.833 648,370.833 647,369.5C 646.253,366.076 646.42,362.743 647.5,359.5 Z"/></g>
<g><path style="opacity:0.809" fill="#fefffe" d="M 465.5,349.5 C 480.459,349.045 485.292,356.045 480,370.5C 479.167,371.333 478.333,372.167 477.5,373C 473.637,374.354 469.637,374.854 465.5,374.5C 465.5,366.167 465.5,357.833 465.5,349.5 Z M 470.5,354.5 C 471.978,354.238 473.311,354.571 474.5,355.5C 476.97,359.744 477.137,364.077 475,368.5C 473.89,370.037 472.39,370.703 470.5,370.5C 470.5,365.167 470.5,359.833 470.5,354.5 Z"/></g>
<g><path style="opacity:0.818" fill="#fefffe" d="M 591.5,349.5 C 596.413,349.003 600.913,350.003 605,352.5C 605.978,355.669 605.478,358.503 603.5,361C 606.394,363.909 607.227,367.409 606,371.5C 605.097,372.701 603.931,373.535 602.5,374C 598.848,374.499 595.182,374.665 591.5,374.5C 591.5,366.167 591.5,357.833 591.5,349.5 Z M 596.5,354.5 C 600.161,354.35 601.161,355.85 599.5,359C 598.552,359.483 597.552,359.649 596.5,359.5C 596.5,357.833 596.5,356.167 596.5,354.5 Z M 596.5,363.5 C 601.493,363.997 602.493,366.164 599.5,370C 598.552,370.483 597.552,370.649 596.5,370.5C 596.5,368.167 596.5,365.833 596.5,363.5 Z"/></g>
<g><path style="opacity:0.77" fill="#fefffe" d="M 569.5,350.5 C 571.256,351.552 571.923,353.219 571.5,355.5C 572.5,355.5 573.5,355.5 574.5,355.5C 574.5,356.833 574.5,358.167 574.5,359.5C 573.5,359.5 572.5,359.5 571.5,359.5C 571.5,363.167 571.5,366.833 571.5,370.5C 573.144,370.286 574.644,370.62 576,371.5C 578.359,367.496 580.525,367.663 582.5,372C 581.122,375.94 578.955,376.44 576,373.5C 573.199,376.074 570.365,376.074 567.5,373.5C 567.048,368.061 566.048,362.728 564.5,357.5C 565.754,355.666 566.421,353.666 566.5,351.5C 567.791,351.737 568.791,351.404 569.5,350.5 Z"/></g>
<g><path style="opacity:0.774" fill="#fefffe" d="M 677.5,350.5 C 679.256,351.552 679.923,353.219 679.5,355.5C 680.5,355.5 681.5,355.5 682.5,355.5C 682.5,356.833 682.5,358.167 682.5,359.5C 681.5,359.5 680.5,359.5 679.5,359.5C 679.5,363.167 679.5,366.833 679.5,370.5C 680.822,370.33 681.989,370.663 683,371.5C 685.872,367.355 688.372,367.522 690.5,372C 688.784,375.475 686.617,375.975 684,373.5C 681,376.167 678,376.167 675,373.5C 674.955,368.016 674.122,362.683 672.5,357.5C 673.754,355.666 674.421,353.666 674.5,351.5C 675.791,351.737 676.791,351.404 677.5,350.5 Z"/></g>
<g><path style="opacity:0.702" fill="#fefffe" d="M 491.5,354.5 C 492.995,354.415 493.995,355.081 494.5,356.5C 493.754,357.736 493.421,359.07 493.5,360.5C 492.178,360.33 491.011,360.663 490,361.5C 489.501,365.821 489.334,370.154 489.5,374.5C 487.5,374.5 485.5,374.5 483.5,374.5C 483.5,368.167 483.5,361.833 483.5,355.5C 485.467,355.261 487.301,355.594 489,356.5C 489.995,355.934 490.828,355.267 491.5,354.5 Z"/></g>
<g><path style="opacity:0.756" fill="#fefffe" d="M 500.5,354.5 C 507.3,355.371 510.3,359.371 509.5,366.5C 506.102,366.18 502.768,366.513 499.5,367.5C 499.833,369.167 500.833,370.167 502.5,370.5C 505.227,368.693 507.227,369.193 508.5,372C 504.503,376.332 500.337,376.498 496,372.5C 493.762,366.985 494.095,361.651 497,356.5C 498.302,355.915 499.469,355.249 500.5,354.5 Z M 501.5,358.5 C 502.947,359.622 503.947,361.122 504.5,363C 499.28,364.042 498.28,362.542 501.5,358.5 Z"/></g>
<g><path style="opacity:0.764" fill="#fefffe" d="M 515.5,354.5 C 518.505,354.253 521.005,355.253 523,357.5C 523.271,362.53 523.771,367.53 524.5,372.5C 523.876,376.094 522.376,376.428 520,373.5C 516.634,376.313 513.634,375.979 511,372.5C 508.945,365.583 511.445,362.25 518.5,362.5C 518.5,361.5 518.5,360.5 518.5,359.5C 516.167,359.5 513.833,359.5 511.5,359.5C 511.5,358.167 511.5,356.833 511.5,355.5C 513.099,355.768 514.432,355.434 515.5,354.5 Z M 515.5,366.5 C 516.5,366.5 517.5,366.5 518.5,366.5C 518.5,367.833 518.5,369.167 518.5,370.5C 517.5,370.5 516.5,370.5 515.5,370.5C 515.5,369.167 515.5,367.833 515.5,366.5 Z"/></g>
<g><path style="opacity:0.749" fill="#fefffe" d="M 534.5,354.5 C 536.258,354.877 537.925,355.544 539.5,356.5C 542.053,353.956 544.553,353.956 547,356.5C 548.41,362.379 548.91,368.379 548.5,374.5C 546.833,374.5 545.167,374.5 543.5,374.5C 543.888,369.372 543.388,364.372 542,359.5C 540.558,364.309 540.058,369.309 540.5,374.5C 538.5,374.5 536.5,374.5 534.5,374.5C 534.827,369.456 534.494,364.456 533.5,359.5C 532.808,360.025 532.308,360.692 532,361.5C 531.501,365.821 531.334,370.154 531.5,374.5C 529.833,374.5 528.167,374.5 526.5,374.5C 526.5,368.167 526.5,361.833 526.5,355.5C 528.467,355.261 530.301,355.594 532,356.5C 532.995,355.934 533.828,355.267 534.5,354.5 Z"/></g>
<g><path style="opacity:0.815" fill="#fefffe" d="M 557.5,355.5 C 559.167,355.5 560.833,355.5 562.5,355.5C 562.5,361.833 562.5,368.167 562.5,374.5C 560.833,374.5 559.167,374.5 557.5,374.5C 557.5,368.167 557.5,361.833 557.5,355.5 Z"/></g>
<g><path style="opacity:0.743" fill="#fefffe" d="M 608.5,355.5 C 610.167,355.5 611.833,355.5 613.5,355.5C 613.173,360.544 613.506,365.544 614.5,370.5C 615.086,370.291 615.586,369.957 616,369.5C 616.499,364.845 616.666,360.179 616.5,355.5C 618.5,355.5 620.5,355.5 622.5,355.5C 622.5,361.833 622.5,368.167 622.5,374.5C 619.041,373.4 615.874,373.734 613,375.5C 611.605,375.22 610.438,374.553 609.5,373.5C 608.543,367.561 608.21,361.561 608.5,355.5 Z"/></g>
<g><path style="opacity:0.815" fill="#fefffe" d="M 625.5,355.5 C 627.167,355.5 628.833,355.5 630.5,355.5C 630.5,361.833 630.5,368.167 630.5,374.5C 628.833,374.5 627.167,374.5 625.5,374.5C 625.5,368.167 625.5,361.833 625.5,355.5 Z"/></g>
<g><path style="opacity:0.815" fill="#fefffe" d="M 665.5,355.5 C 667.167,355.5 668.833,355.5 670.5,355.5C 670.5,361.833 670.5,368.167 670.5,374.5C 668.833,374.5 667.167,374.5 665.5,374.5C 665.5,368.167 665.5,361.833 665.5,355.5 Z"/></g>
</svg>
