<svg xmlns="http://www.w3.org/2000/svg" version="1.1" xmlns:xlink="http://www.w3.org/1999/xlink" xmlns:svgjs="http://svgjs.dev/svgjs" width="128" height="128" viewBox="0 0 128 128"><g transform="matrix(0.8046875,0,0,0.8046875,12.221578124999994,12.221578124999994)"><svg viewBox="0 0 96 96" data-background-color="#ffffff" preserveAspectRatio="xMidYMid meet" height="128" width="128" xmlns="http://www.w3.org/2000/svg" xmlns:xlink="http://www.w3.org/1999/xlink"><g id="tight-bounds" transform="matrix(1,0,0,1,0.25950000000000273,0.25950000000000273)"><svg viewBox="0 0 95.481 95.481" height="95.481" width="95.481"><g><svg viewBox="0 0 95.481 95.481" height="95.481" width="95.481"><g><svg viewBox="0 0 95.481 95.481" height="95.481" width="95.481"><g id="textblocktransform"><svg viewBox="0 0 95.481 95.481" height="95.481" width="95.481" id="textblock"><g><svg viewBox="0 0 95.481 95.481" height="95.481" width="95.481"><g><svg viewBox="0 0 95.481 95.481" height="95.481" width="95.481"><g><svg xmlns="http://www.w3.org/2000/svg" xmlns:xlink="http://www.w3.org/1999/xlink" version="1.1" x="0" y="0" viewBox="0 0 100 100" enable-background="new 0 0 100 100" xml:space="preserve" height="95.481" width="95.481" class="icon-icon-0" data-fill-palette-color="accent" id="icon-0"><path d="M50 0C22.461 0 0 22.462 0 50 0 77.54 22.461 100 50 100S100 77.54 100 50C100 22.462 77.539 0 50 0M43.771 15.246C43.771 11.82 46.573 9.017 50 9.017S56.229 11.821 56.229 15.246V43.115C56.229 46.541 53.425 49.344 50 49.344 46.573 49.344 43.771 46.54 43.771 43.115zM49.999 84.591C30.899 84.591 15.409 69.102 15.409 50 15.409 40.152 20.034 31.771 26.642 25.47 32.59 20.836 40.642 28.965 34.815 34.816A21.4 21.4 0 0 0 28.524 50.001C28.524 61.859 38.141 71.479 49.999 71.479S71.475 61.86 71.475 50.001C71.475 44.287 69.748 39.852 66.108 36.004 63.061 32.99 60.071 28.942 64.043 24.93 68.62 20.298 73.704 25.021 76.879 28.528 82.26 34.627 84.59 41.229 84.59 50 84.59 69.102 69.1 84.591 49.999 84.591" fill="#ffffff" data-fill-palette-color="accent"></path></svg></g></svg></g></svg></g></svg></g></svg></g></svg></g><defs></defs></svg><rect width="95.481" height="95.481" fill="none" stroke="none" visibility="hidden"></rect></g></svg></g></svg>