<?xml version="1.0" encoding="UTF-8"?>
<!DOCTYPE svg PUBLIC "-//W3C//DTD SVG 1.1//EN" "http://www.w3.org/Graphics/SVG/1.1/DTD/svg11.dtd">
<svg xmlns="http://www.w3.org/2000/svg" version="1.1" width="1500px" height="1500px" style="shape-rendering:geometricPrecision; text-rendering:geometricPrecision; image-rendering:optimizeQuality; fill-rule:evenodd; clip-rule:evenodd" xmlns:xlink="http://www.w3.org/1999/xlink">
<g><path style="opacity:1" fill="#000000" d="M -0.5,-0.5 C 499.5,-0.5 999.5,-0.5 1499.5,-0.5C 1499.5,499.5 1499.5,999.5 1499.5,1499.5C 999.5,1499.5 499.5,1499.5 -0.5,1499.5C -0.5,999.5 -0.5,499.5 -0.5,-0.5 Z"/></g>
<g><path style="opacity:1" fill="#7e7e7e" d="M 250.5,604.5 C 277.167,604.5 303.833,604.5 330.5,604.5C 330.5,701.167 330.5,797.833 330.5,894.5C 303.833,894.5 277.167,894.5 250.5,894.5C 250.5,797.833 250.5,701.167 250.5,604.5 Z"/></g>
<g><path style="opacity:1" fill="#bdbdbd" d="M 347.5,604.5 C 374.167,604.5 400.833,604.5 427.5,604.5C 427.5,701.167 427.5,797.833 427.5,894.5C 400.833,894.5 374.167,894.5 347.5,894.5C 347.5,797.833 347.5,701.167 347.5,604.5 Z"/></g>
<g><path style="opacity:1" fill="#fefffe" d="M 444.5,604.5 C 470.833,604.5 497.167,604.5 523.5,604.5C 523.5,701.167 523.5,797.833 523.5,894.5C 497.167,894.5 470.833,894.5 444.5,894.5C 444.5,797.833 444.5,701.167 444.5,604.5 Z"/></g>
<g><path style="opacity:1" fill="#bfbfbf" d="M 574.5,650.5 C 577.649,649.835 580.982,649.502 584.5,649.5C 588.239,649.514 591.572,650.18 594.5,651.5C 587.922,650.54 581.255,650.207 574.5,650.5 Z"/></g>
<g><path style="opacity:1" fill="#020202" d="M 707.5,714.5 C 697.02,717.31 686.353,718.143 675.5,717C 669.673,715.838 664.84,713.004 661,708.5C 659.379,692.567 659.046,676.567 660,660.5C 660.847,658.807 661.68,657.14 662.5,655.5C 670.01,650.54 678.344,648.54 687.5,649.5C 696.481,648.454 704.648,650.454 712,655.5C 713.439,657.275 714.439,659.275 715,661.5C 715.667,676.167 715.667,690.833 715,705.5C 713.358,709.3 710.858,712.3 707.5,714.5 Z"/></g>
<g><path style="opacity:1" fill="#b8b8b8" d="M 810.5,650.5 C 824.327,649.339 838.327,649.173 852.5,650C 856.627,650.56 859.96,652.393 862.5,655.5C 858.856,653.183 854.856,651.683 850.5,651C 837.171,650.5 823.837,650.333 810.5,650.5 Z"/></g>
<g><path style="opacity:1" fill="#b8b8b8" d="M 887.5,651.5 C 887.167,651.5 886.833,651.5 886.5,651.5C 886.611,650.883 886.944,650.383 887.5,650C 901.5,649.333 915.5,649.333 929.5,650C 933.704,650.553 936.204,652.72 937,656.5C 934.658,653.246 931.491,651.412 927.5,651C 914.092,650.187 900.758,650.353 887.5,651.5 Z"/></g>
<g><path style="opacity:1" fill="#bcbcbc" d="M 965.5,650.5 C 981.328,649.339 997.328,649.172 1013.5,650C 1014.06,650.383 1014.39,650.883 1014.5,651.5C 1014.5,652.167 1014.17,652.5 1013.5,652.5C 1013.39,651.883 1013.06,651.383 1012.5,651C 996.837,650.5 981.17,650.333 965.5,650.5 Z"/></g>
<g><path style="opacity:1" fill="#b9b9b9" d="M 1076.5,650.5 C 1066.49,650.334 1056.49,650.5 1046.5,651C 1045.96,651.717 1045.29,652.217 1044.5,652.5C 1044.5,652.167 1044.5,651.833 1044.5,651.5C 1044.61,650.883 1044.94,650.383 1045.5,650C 1056.01,649.175 1066.34,649.341 1076.5,650.5 Z"/></g>
<g><path style="opacity:1" fill="#b6b6b6" d="M 1135.5,657.5 C 1133.73,655.492 1132.07,653.326 1130.5,651C 1123.75,650.208 1117.09,650.374 1110.5,651.5C 1110.5,651.167 1110.5,650.833 1110.5,650.5C 1117.32,649.345 1124.32,649.179 1131.5,650C 1133.49,652.157 1134.83,654.657 1135.5,657.5 Z"/></g>
<g><path style="opacity:1" fill="#bababa" d="M 1175.5,651.5 C 1168.2,650.199 1160.86,650.199 1153.5,651.5C 1153.61,650.883 1153.94,650.383 1154.5,650C 1158,649.833 1161.5,649.667 1165,649.5C 1168.9,649.512 1172.4,650.179 1175.5,651.5 Z"/></g>
<g><path style="opacity:1" fill="#c1c1c1" d="M 1197.5,650.5 C 1213.33,649.339 1229.33,649.172 1245.5,650C 1246.65,657.086 1246.81,664.253 1246,671.5C 1245.29,672.381 1244.46,673.047 1243.5,673.5C 1245.7,666.089 1246.03,658.589 1244.5,651C 1228.84,650.5 1213.17,650.333 1197.5,650.5 Z"/></g>
<g><path style="opacity:1" fill="#060606" d="M 574.5,650.5 C 581.255,650.207 587.922,650.54 594.5,651.5C 594.333,663.171 594.5,674.838 595,686.5C 596.393,682.714 598.059,679.048 600,675.5C 600.816,674.177 601.983,673.511 603.5,673.5C 605.833,673.5 608.167,673.5 610.5,673.5C 613.839,676.835 616.172,680.835 617.5,685.5C 617.783,686.289 618.283,686.956 619,687.5C 619.5,675.505 619.667,663.505 619.5,651.5C 619.5,651.167 619.5,650.833 619.5,650.5C 625.758,650.19 631.924,650.524 638,651.5C 638.667,666.833 638.667,682.167 638,697.5C 636.523,701.43 635.356,705.43 634.5,709.5C 633.069,710.78 632.402,712.447 632.5,714.5C 631.711,714.783 631.044,715.283 630.5,716C 625.167,716.667 619.833,716.667 614.5,716C 611.889,710.834 610.056,705.334 609,699.5C 607.688,697.342 606.022,697.009 604,698.5C 602.626,704.336 600.792,710.003 598.5,715.5C 593.22,716.618 587.887,716.784 582.5,716C 578.502,709.349 575.669,702.182 574,694.5C 573.185,679.759 573.351,665.092 574.5,650.5 Z"/></g>
<g><path style="opacity:1" fill="#070707" d="M 737.5,650.5 C 744.09,650.189 750.59,650.522 757,651.5C 757.5,667.163 757.667,682.83 757.5,698.5C 761.634,699.485 765.968,699.818 770.5,699.5C 770.5,694.167 770.5,688.833 770.5,683.5C 770.5,682.833 770.5,682.167 770.5,681.5C 771.167,681.5 771.833,681.5 772.5,681.5C 778.167,681.5 783.833,681.5 789.5,681.5C 789.811,693.247 789.478,704.914 788.5,716.5C 771.83,716.667 755.163,716.5 738.5,716C 738,715.5 737.5,715 737,714.5C 736.189,693.124 736.356,671.79 737.5,650.5 Z"/></g>
<g><path style="opacity:1" fill="#070707" d="M 810.5,650.5 C 823.837,650.333 837.171,650.5 850.5,651C 854.856,651.683 858.856,653.183 862.5,655.5C 864.196,658.236 865.362,661.236 866,664.5C 867.038,679.26 866.538,693.927 864.5,708.5C 860.494,712.792 855.494,715.292 849.5,716C 836.833,716.667 824.167,716.667 811.5,716C 811,715.5 810.5,715 810,714.5C 809.189,693.124 809.356,671.79 810.5,650.5 Z"/></g>
<g><path style="opacity:1" fill="#070707" d="M 965.5,650.5 C 981.17,650.333 996.837,650.5 1012.5,651C 1013.06,651.383 1013.39,651.883 1013.5,652.5C 1013.78,657.595 1013.45,662.595 1012.5,667.5C 1003.5,667.5 994.5,667.5 985.5,667.5C 985.5,669.833 985.5,672.167 985.5,674.5C 991.842,674.334 998.175,674.5 1004.5,675C 1005,675.5 1005.5,676 1006,676.5C 1006.67,680.833 1006.67,685.167 1006,689.5C 1005.5,690 1005,690.5 1004.5,691C 998.175,691.5 991.842,691.666 985.5,691.5C 985.5,693.833 985.5,696.167 985.5,698.5C 994.652,699.494 1003.99,699.827 1013.5,699.5C 1013.79,705.259 1013.45,710.925 1012.5,716.5C 997.163,716.667 981.83,716.5 966.5,716C 966,715.5 965.5,715 965,714.5C 964.189,693.124 964.356,671.79 965.5,650.5 Z"/></g>
<g><path style="opacity:1" fill="#050505" d="M 1076.5,650.5 C 1078.26,655.018 1080.26,659.351 1082.5,663.5C 1084.76,670.44 1086.92,677.44 1089,684.5C 1089.5,694.828 1089.67,705.161 1089.5,715.5C 1083.17,715.5 1076.83,715.5 1070.5,715.5C 1069.88,715.389 1069.38,715.056 1069,714.5C 1068.5,709.845 1068.33,705.179 1068.5,700.5C 1063.17,700.5 1057.83,700.5 1052.5,700.5C 1052.5,705.5 1052.5,710.5 1052.5,715.5C 1046.17,715.5 1039.83,715.5 1033.5,715.5C 1032.36,704.91 1032.19,694.243 1033,683.5C 1036.54,673.033 1040.38,662.7 1044.5,652.5C 1045.29,652.217 1045.96,651.717 1046.5,651C 1056.49,650.5 1066.49,650.334 1076.5,650.5 Z"/></g>
<g><path style="opacity:1" fill="#030303" d="M 1135.5,657.5 C 1136.34,657.842 1136.67,658.508 1136.5,659.5C 1137.74,662.589 1139.24,665.589 1141,668.5C 1141.56,669.022 1142.23,669.355 1143,669.5C 1147.27,663.966 1150.77,657.966 1153.5,651.5C 1160.86,650.199 1168.2,650.199 1175.5,651.5C 1175.67,672.503 1175.5,693.503 1175,714.5C 1174.28,715.044 1173.78,715.711 1173.5,716.5C 1167.82,716.666 1162.16,716.499 1156.5,716C 1155.94,715.617 1155.61,715.117 1155.5,714.5C 1155.67,703.162 1155.5,691.828 1155,680.5C 1154.28,681.044 1153.78,681.711 1153.5,682.5C 1152.01,685.473 1150.51,688.473 1149,691.5C 1147.18,693.045 1145.01,693.712 1142.5,693.5C 1140.57,693.46 1138.74,693.127 1137,692.5C 1134.75,688.993 1132.75,685.327 1131,681.5C 1130.67,692.5 1130.33,703.5 1130,714.5C 1129.5,715 1129,715.5 1128.5,716C 1122.83,716.667 1117.17,716.667 1111.5,716C 1110.51,694.575 1110.17,673.075 1110.5,651.5C 1117.09,650.374 1123.75,650.208 1130.5,651C 1132.07,653.326 1133.73,655.492 1135.5,657.5 Z"/></g>
<g><path style="opacity:1" fill="#090909" d="M 1197.5,650.5 C 1213.17,650.333 1228.84,650.5 1244.5,651C 1246.03,658.589 1245.7,666.089 1243.5,673.5C 1241.41,674.585 1240.08,676.251 1239.5,678.5C 1237.09,679.911 1235.42,681.911 1234.5,684.5C 1232.09,685.911 1230.42,687.911 1229.5,690.5C 1227.41,691.585 1226.08,693.251 1225.5,695.5C 1224.17,696.167 1223.17,697.167 1222.5,698.5C 1229.98,699.492 1237.65,699.825 1245.5,699.5C 1246.22,699.918 1246.72,700.584 1247,701.5C 1248.05,706.785 1247.55,711.785 1245.5,716.5C 1228.92,716.825 1212.42,716.492 1196,715.5C 1195.33,709.5 1195.33,703.5 1196,697.5C 1203.33,688.003 1210.83,678.67 1218.5,669.5C 1219.04,669.44 1219.38,669.107 1219.5,668.5C 1212.53,667.503 1205.53,667.17 1198.5,667.5C 1197.88,667.389 1197.38,667.056 1197,666.5C 1196.27,661.115 1196.43,655.782 1197.5,650.5 Z"/></g>
<g><path style="opacity:1" fill="#f5f5f5" d="M 574.5,650.5 C 573.351,665.092 573.185,679.759 574,694.5C 575.669,702.182 578.502,709.349 582.5,716C 587.887,716.784 593.22,716.618 598.5,715.5C 600.792,710.003 602.626,704.336 604,698.5C 606.022,697.009 607.688,697.342 609,699.5C 610.056,705.334 611.889,710.834 614.5,716C 619.833,716.667 625.167,716.667 630.5,716C 631.044,715.283 631.711,714.783 632.5,714.5C 628.585,719.326 623.918,723.493 618.5,727C 613.167,727.667 607.833,727.667 602.5,727C 600.036,724.356 598.536,721.19 598,717.5C 594.167,720.667 590.333,723.833 586.5,727C 581.167,727.667 575.833,727.667 570.5,727C 569.692,726.692 569.025,726.192 568.5,725.5C 565.716,718.933 563.216,712.266 561,705.5C 560.333,690.833 560.333,676.167 561,661.5C 565.393,657.597 569.893,653.931 574.5,650.5 Z"/></g>
<g><path style="opacity:1" fill="#f6f6f6" d="M 619.5,650.5 C 619.5,650.833 619.5,651.167 619.5,651.5C 618.833,662.833 618.167,674.167 617.5,685.5C 616.172,680.835 613.839,676.835 610.5,673.5C 608.833,672.833 607.167,672.167 605.5,671.5C 605.335,668.15 605.502,664.817 606,661.5C 610.393,657.597 614.893,653.931 619.5,650.5 Z"/></g>
<g><path style="opacity:1" fill="#fbfbfb" d="M 737.5,650.5 C 736.356,671.79 736.189,693.124 737,714.5C 737.5,715 738,715.5 738.5,716C 755.163,716.5 771.83,716.667 788.5,716.5C 788.5,716.833 788.5,717.167 788.5,717.5C 784.712,720.899 780.712,724.066 776.5,727C 759.259,727.825 742.093,727.658 725,726.5C 724.333,704.5 724.333,682.5 725,660.5C 729.041,656.953 733.208,653.62 737.5,650.5 Z"/></g>
<g><path style="opacity:1" fill="#f4f4f4" d="M 810.5,650.5 C 809.356,671.79 809.189,693.124 810,714.5C 810.5,715 811,715.5 811.5,716C 824.167,716.667 836.833,716.667 849.5,716C 855.494,715.292 860.494,712.792 864.5,708.5C 863.797,710.716 862.464,712.549 860.5,714C 857.167,716.667 853.833,719.333 850.5,722C 846.905,724.569 842.905,726.236 838.5,727C 824.925,727.822 811.425,727.656 798,726.5C 796.356,704.922 796.023,683.255 797,661.5C 801.374,657.621 805.874,653.954 810.5,650.5 Z"/></g>
<g><path style="opacity:1" fill="#f5f5f5" d="M 965.5,650.5 C 964.356,671.79 964.189,693.124 965,714.5C 965.5,715 966,715.5 966.5,716C 981.83,716.5 997.163,716.667 1012.5,716.5C 1012.5,716.833 1012.5,717.167 1012.5,717.5C 1008.38,720.453 1004.38,723.619 1000.5,727C 984.592,727.824 968.759,727.657 953,726.5C 951.356,704.922 951.023,683.255 952,661.5C 956.374,657.621 960.874,653.954 965.5,650.5 Z"/></g>
<g><path style="opacity:1" fill="#f8f8f8" d="M 1197.5,650.5 C 1196.43,655.782 1196.27,661.115 1197,666.5C 1197.38,667.056 1197.88,667.389 1198.5,667.5C 1205.17,668.167 1211.83,668.833 1218.5,669.5C 1210.83,678.67 1203.33,688.003 1196,697.5C 1195.33,703.5 1195.33,709.5 1196,715.5C 1212.42,716.492 1228.92,716.825 1245.5,716.5C 1245.5,716.833 1245.5,717.167 1245.5,717.5C 1242.03,720.802 1238.36,723.968 1234.5,727C 1217.83,727.667 1201.17,727.667 1184.5,727C 1184,726.5 1183.5,726 1183,725.5C 1182.33,719.167 1182.33,712.833 1183,706.5C 1190.38,697.96 1197.55,689.293 1204.5,680.5C 1205.04,680.44 1205.38,680.107 1205.5,679.5C 1199.2,678.504 1192.87,678.17 1186.5,678.5C 1185.88,678.389 1185.38,678.056 1185,677.5C 1184.33,671.833 1184.33,666.167 1185,660.5C 1189.04,656.953 1193.21,653.62 1197.5,650.5 Z"/></g>
<g><path style="opacity:1" fill="#f9f9f9" d="M 886.5,651.5 C 886.833,651.5 887.167,651.5 887.5,651.5C 887.333,672.836 887.5,694.169 888,715.5C 894.076,716.476 900.242,716.81 906.5,716.5C 906.5,716.833 906.5,717.167 906.5,717.5C 902.712,720.899 898.712,724.066 894.5,727C 888.5,727.667 882.5,727.667 876.5,727C 876,726.5 875.5,726 875,725.5C 874.333,704.167 874.333,682.833 875,661.5C 878.41,657.584 882.243,654.251 886.5,651.5 Z"/></g>
<g><path style="opacity:1" fill="#f5f5f5" d="M 1044.5,651.5 C 1044.5,651.833 1044.5,652.167 1044.5,652.5C 1040.38,662.7 1036.54,673.033 1033,683.5C 1032.19,694.243 1032.36,704.91 1033.5,715.5C 1039.5,716.167 1045.5,716.833 1051.5,717.5C 1047.38,720.453 1043.38,723.619 1039.5,727C 1033.5,727.667 1027.5,727.667 1021.5,727C 1021,726.5 1020.5,726 1020,725.5C 1019.09,713.775 1019.42,702.108 1021,690.5C 1024.39,680.723 1028.06,671.056 1032,661.5C 1036.04,657.953 1040.21,654.62 1044.5,651.5 Z"/></g>
<g><path style="opacity:1" fill="#303030" d="M 619.5,651.5 C 619.667,663.505 619.5,675.505 619,687.5C 618.283,686.956 617.783,686.289 617.5,685.5C 618.167,674.167 618.833,662.833 619.5,651.5 Z"/></g>
<g><path style="opacity:1" fill="#8b8b8b" d="M 619.5,650.5 C 625.653,649.347 631.986,649.18 638.5,650C 639,650.5 639.5,651 640,651.5C 640.667,665.167 640.667,678.833 640,692.5C 639.237,698.621 637.403,704.287 634.5,709.5C 635.356,705.43 636.523,701.43 638,697.5C 638.667,682.167 638.667,666.833 638,651.5C 631.924,650.524 625.758,650.19 619.5,650.5 Z"/></g>
<g><path style="opacity:1" fill="#d5d5d5" d="M 737.5,650.5 C 744.235,649.173 751.068,649.173 758,650.5C 758.169,664.006 758.669,677.34 759.5,690.5C 758.612,693.054 758.279,695.721 758.5,698.5C 758.167,698.5 757.833,698.5 757.5,698.5C 757.667,682.83 757.5,667.163 757,651.5C 750.59,650.522 744.09,650.189 737.5,650.5 Z"/></g>
<g><path style="opacity:1" fill="#808080" d="M 1014.5,651.5 C 1015.65,655.981 1015.82,660.648 1015,665.5C 1014.62,666.942 1013.79,667.942 1012.5,668.5C 1012.5,668.167 1012.5,667.833 1012.5,667.5C 1013.45,662.595 1013.78,657.595 1013.5,652.5C 1014.17,652.5 1014.5,652.167 1014.5,651.5 Z"/></g>
<g><path style="opacity:1" fill="#e9e9e9" d="M 1153.5,651.5 C 1150.77,657.966 1147.27,663.966 1143,669.5C 1142.23,669.355 1141.56,669.022 1141,668.5C 1139.24,665.589 1137.74,662.589 1136.5,659.5C 1137.71,660.23 1138.71,661.23 1139.5,662.5C 1143.86,658.334 1148.53,654.667 1153.5,651.5 Z"/></g>
<g><path style="opacity:1" fill="#d0d0d0" d="M 1175.5,651.5 C 1176.66,672.663 1176.83,693.996 1176,715.5C 1175.29,716.381 1174.46,717.047 1173.5,717.5C 1173.5,717.167 1173.5,716.833 1173.5,716.5C 1173.78,715.711 1174.28,715.044 1175,714.5C 1175.5,693.503 1175.67,672.503 1175.5,651.5 Z"/></g>
<g><path style="opacity:1" fill="#f6f6f6" d="M 662.5,655.5 C 661.68,657.14 660.847,658.807 660,660.5C 659.046,676.567 659.379,692.567 661,708.5C 664.84,713.004 669.673,715.838 675.5,717C 686.353,718.143 697.02,717.31 707.5,714.5C 708.167,714.5 708.5,714.833 708.5,715.5C 696.295,727.616 681.629,731.783 664.5,728C 655.913,726.407 650.08,721.574 647,713.5C 646.333,699.167 646.333,684.833 647,670.5C 650.735,663.931 655.901,658.931 662.5,655.5 Z"/></g>
<g><path style="opacity:1" fill="#9d9d9d" d="M 1076.5,650.5 C 1077.75,650.577 1078.58,651.244 1079,652.5C 1080.67,656.021 1081.84,659.687 1082.5,663.5C 1080.26,659.351 1078.26,655.018 1076.5,650.5 Z"/></g>
<g><path style="opacity:1" fill="#cdcdcd" d="M 587.5,706.5 C 585.583,703.196 584.416,699.529 584,695.5C 583.333,683.167 583.333,670.833 584,658.5C 584.333,670.167 584.667,681.833 585,693.5C 585.996,697.816 586.83,702.149 587.5,706.5 Z"/></g>
<g><path style="opacity:1" fill="#5c5c5c" d="M 628.5,695.5 C 628.5,694.833 628.167,694.5 627.5,694.5C 627.168,682.482 627.501,670.482 628.5,658.5C 629.825,670.994 629.825,683.327 628.5,695.5 Z"/></g>
<g><path style="opacity:1" fill="#040404" d="M 704.5,669.5 C 704.5,680.167 704.5,690.833 704.5,701.5C 704.672,702.492 704.338,703.158 703.5,703.5C 695.41,708.25 686.743,709.417 677.5,707C 675.413,706.208 673.579,705.041 672,703.5C 670.373,690.929 670.04,678.262 671,665.5C 672.167,663 674,661.167 676.5,660C 684.62,657.83 692.62,658.164 700.5,661C 703.321,663.141 704.654,665.975 704.5,669.5 Z"/></g>
<g><path style="opacity:1" fill="#d1d1d1" d="M 850.5,660.5 C 840.532,659.604 830.532,659.271 820.5,659.5C 820.5,675.167 820.5,690.833 820.5,706.5C 820.5,707.167 820.167,707.5 819.5,707.5C 819.5,691.167 819.5,674.833 819.5,658.5C 829.172,658.334 838.839,658.5 848.5,659C 849.416,659.278 850.082,659.778 850.5,660.5 Z"/></g>
<g><path style="opacity:1" fill="#c9c9c9" d="M 975.5,706.5 C 975.5,707.167 975.167,707.5 974.5,707.5C 974.5,691.167 974.5,674.833 974.5,658.5C 984.839,658.334 995.172,658.5 1005.5,659C 995.506,659.5 985.506,659.666 975.5,659.5C 975.5,667.167 975.5,674.833 975.5,682.5C 1006.17,682.833 1006.17,683.167 975.5,683.5C 975.5,691.167 975.5,698.833 975.5,706.5 Z"/></g>
<g><path style="opacity:1" fill="#cecece" d="M 1070.5,662.5 C 1069.37,661.878 1068.37,661.045 1067.5,660C 1062.45,659.274 1057.45,659.441 1052.5,660.5C 1052.61,659.883 1052.94,659.383 1053.5,659C 1058.5,658.333 1063.5,658.333 1068.5,659C 1069.82,659.816 1070.49,660.983 1070.5,662.5 Z"/></g>
<g><path style="opacity:1" fill="#060606" d="M 850.5,660.5 C 850.842,661.338 851.508,661.672 852.5,661.5C 853.32,663.14 854.153,664.807 855,666.5C 855.667,677.833 855.667,689.167 855,700.5C 854.209,701.745 853.709,703.078 853.5,704.5C 852.078,704.709 850.745,705.209 849.5,706C 839.839,706.5 830.172,706.666 820.5,706.5C 820.5,690.833 820.5,675.167 820.5,659.5C 830.532,659.271 840.532,659.604 850.5,660.5 Z"/></g>
<g><path style="opacity:1" fill="#c6c6c6" d="M 925.5,661.5 C 916.666,659.621 907.666,658.954 898.5,659.5C 898.5,668.167 898.5,676.833 898.5,685.5C 898.5,685.833 898.5,686.167 898.5,686.5C 898.666,693.841 898.5,701.174 898,708.5C 897.5,691.837 897.333,675.17 897.5,658.5C 905.84,658.334 914.173,658.5 922.5,659C 923.942,659.377 924.942,660.21 925.5,661.5 Z"/></g>
<g><path style="opacity:1" fill="#030303" d="M 925.5,661.5 C 927.478,667.659 927.978,673.993 927,680.5C 926.215,682.286 925.049,683.786 923.5,685C 915.173,685.5 906.84,685.666 898.5,685.5C 898.5,676.833 898.5,668.167 898.5,659.5C 907.666,658.954 916.666,659.621 925.5,661.5 Z"/></g>
<g><path style="opacity:1" fill="#050505" d="M 1070.5,662.5 C 1071.34,662.842 1071.67,663.508 1071.5,664.5C 1071.71,667.241 1072.71,669.574 1074.5,671.5C 1075.56,675.168 1076.72,678.835 1078,682.5C 1078.5,685.482 1078.66,688.482 1078.5,691.5C 1066.83,691.5 1055.17,691.5 1043.5,691.5C 1043.34,688.813 1043.5,686.146 1044,683.5C 1045.46,679.577 1046.63,675.577 1047.5,671.5C 1048.93,670.22 1049.6,668.553 1049.5,666.5C 1051.01,664.819 1052.01,662.819 1052.5,660.5C 1057.45,659.441 1062.45,659.274 1067.5,660C 1068.37,661.045 1069.37,661.878 1070.5,662.5 Z"/></g>
<g><path style="opacity:1" fill="#a3a3a3" d="M 1052.5,660.5 C 1052.01,662.819 1051.01,664.819 1049.5,666.5C 1049.46,663.911 1050.46,661.911 1052.5,660.5 Z"/></g>
<g><path style="opacity:1" fill="#9d9d9d" d="M 1125.5,659.5 C 1123.9,659.232 1122.57,659.566 1121.5,660.5C 1120.83,676.167 1120.17,691.833 1119.5,707.5C 1119.33,691.497 1119.5,675.497 1120,659.5C 1121.94,658.193 1123.78,658.193 1125.5,659.5 Z"/></g>
<g><path style="opacity:1" fill="#4e4e4e" d="M 1121.5,660.5 C 1121.83,676.514 1121.5,692.514 1120.5,708.5C 1119.89,708.376 1119.56,708.043 1119.5,707.5C 1120.17,691.833 1120.83,676.167 1121.5,660.5 Z"/></g>
<g><path style="opacity:1" fill="#737373" d="M 1159.5,659.5 C 1161.22,658.193 1163.06,658.193 1165,659.5C 1165.83,675.844 1165.67,692.177 1164.5,708.5C 1163.5,692.18 1163.17,675.847 1163.5,659.5C 1162.17,659.5 1160.83,659.5 1159.5,659.5 Z"/></g>
<g><path style="opacity:1" fill="#8b8b8b" d="M 1234.5,665.5 C 1234.34,663.473 1234.5,661.473 1235,659.5C 1237.09,661.772 1236.92,663.772 1234.5,665.5 Z"/></g>
<g><path style="opacity:1" fill="#a3a3a3" d="M 1125.5,659.5 C 1128.28,661.951 1130.28,664.951 1131.5,668.5C 1128.76,666.025 1126.76,663.025 1125.5,659.5 Z"/></g>
<g><path style="opacity:1" fill="#a3a3a3" d="M 1159.5,659.5 C 1157.33,663.852 1154.66,667.852 1151.5,671.5C 1153.18,666.803 1155.84,662.803 1159.5,659.5 Z"/></g>
<g><path style="opacity:1" fill="#aaaaaa" d="M 937.5,678.5 C 939.525,671.926 940.025,665.259 939,658.5C 940.563,663.718 940.896,669.051 940,674.5C 939.8,676.32 938.966,677.653 937.5,678.5 Z"/></g>
<g><path style="opacity:1" fill="#cbcbcb" d="M 862.5,655.5 C 864.984,657.12 866.484,659.453 867,662.5C 867.667,676.5 867.667,690.5 867,704.5C 866.392,706.066 865.558,707.4 864.5,708.5C 866.538,693.927 867.038,679.26 866,664.5C 865.362,661.236 864.196,658.236 862.5,655.5 Z"/></g>
<g><path style="opacity:1" fill="#a1a1a1" d="M 1071.5,664.5 C 1073.29,666.426 1074.29,668.759 1074.5,671.5C 1072.71,669.574 1071.71,667.241 1071.5,664.5 Z"/></g>
<g><path style="opacity:1" fill="#f7f7f7" d="M 682.5,699.5 C 682.5,698.833 682.5,698.167 682.5,697.5C 682.666,691.491 682.499,685.491 682,679.5C 681.617,678.944 681.117,678.611 680.5,678.5C 680.5,675.5 680.5,672.5 680.5,669.5C 681.874,667.041 684.04,666.041 687,666.5C 690.2,666.147 692.867,667.147 695,669.5C 695.667,678.833 695.667,688.167 695,697.5C 694.5,698 694,698.5 693.5,699C 689.848,699.499 686.182,699.665 682.5,699.5 Z"/></g>
<g><path style="opacity:1" fill="#898989" d="M 708.5,715.5 C 708.5,714.833 708.167,714.5 707.5,714.5C 710.858,712.3 713.358,709.3 715,705.5C 715.667,690.833 715.667,676.167 715,661.5C 714.439,659.275 713.439,657.275 712,655.5C 704.648,650.454 696.481,648.454 687.5,649.5C 678.344,648.54 670.01,650.54 662.5,655.5C 665.176,651.822 668.843,649.656 673.5,649C 684.232,646.92 694.899,647.254 705.5,650C 712.017,652.193 715.85,656.693 717,663.5C 717.667,676.167 717.667,688.833 717,701.5C 716.451,707.606 713.617,712.273 708.5,715.5 Z"/></g>
<g><path style="opacity:1" fill="#f0f0f0" d="M 908.5,666.5 C 911.518,666.335 914.518,666.502 917.5,667C 921.926,676.418 918.926,680.252 908.5,678.5C 908.5,674.5 908.5,670.5 908.5,666.5 Z"/></g>
<g><path style="opacity:1" fill="#878787" d="M 1198.5,667.5 C 1205.53,667.17 1212.53,667.503 1219.5,668.5C 1219.38,669.107 1219.04,669.44 1218.5,669.5C 1211.83,668.833 1205.17,668.167 1198.5,667.5 Z"/></g>
<g><path style="opacity:1" fill="#a3a3a3" d="M 1234.5,665.5 C 1233.92,667.749 1232.59,669.415 1230.5,670.5C 1231.08,668.251 1232.41,666.585 1234.5,665.5 Z"/></g>
<g><path style="opacity:1" fill="#fbfbfb" d="M 843.5,698.5 C 840.167,698.5 836.833,698.5 833.5,698.5C 833.955,691.986 833.455,685.653 832,679.5C 831.828,686.013 831.328,692.347 830.5,698.5C 830.5,688.167 830.5,677.833 830.5,667.5C 834.846,667.334 839.179,667.501 843.5,668C 844,668.5 844.5,669 845,669.5C 845.667,678.833 845.667,688.167 845,697.5C 844.617,698.056 844.117,698.389 843.5,698.5 Z"/></g>
<g><path style="opacity:1" fill="#a2a2a2" d="M 1049.5,666.5 C 1049.6,668.553 1048.93,670.22 1047.5,671.5C 1047.4,669.447 1048.07,667.78 1049.5,666.5 Z"/></g>
<g><path style="opacity:1" fill="#efefef" d="M 1058.5,667.5 C 1060.72,667.178 1062.56,667.845 1064,669.5C 1065.49,674.108 1066.65,678.774 1067.5,683.5C 1062.79,683.827 1058.12,683.493 1053.5,682.5C 1055.33,677.524 1056.99,672.524 1058.5,667.5 Z"/></g>
<g><path style="opacity:1" fill="#777777" d="M 705.5,667.5 C 706.659,677.992 706.825,688.659 706,699.5C 705.722,700.416 705.222,701.082 704.5,701.5C 704.5,690.833 704.5,680.167 704.5,669.5C 705.338,669.158 705.672,668.492 705.5,667.5 Z"/></g>
<g><path style="opacity:1" fill="#a3a3a3" d="M 1131.5,668.5 C 1132.91,668.973 1133.57,669.973 1133.5,671.5C 1132.09,671.027 1131.43,670.027 1131.5,668.5 Z"/></g>
<g><path style="opacity:1" fill="#919191" d="M 705.5,667.5 C 705.672,668.492 705.338,669.158 704.5,669.5C 704.654,665.975 703.321,663.141 700.5,661C 692.62,658.164 684.62,657.83 676.5,660C 674,661.167 672.167,663 671,665.5C 670.04,678.262 670.373,690.929 672,703.5C 673.579,705.041 675.413,706.208 677.5,707C 686.743,709.417 695.41,708.25 703.5,703.5C 702.781,705.888 701.115,707.388 698.5,708C 691.158,709.95 683.824,709.95 676.5,708C 672.23,706.73 669.73,703.896 669,699.5C 668.333,688.5 668.333,677.5 669,666.5C 672.829,659.04 678.996,656.04 687.5,657.5C 693.887,656.479 699.387,658.146 704,662.5C 705.009,664.025 705.509,665.692 705.5,667.5 Z"/></g>
<g><path style="opacity:1" fill="#ababab" d="M 680.5,669.5 C 680.5,672.5 680.5,675.5 680.5,678.5C 680.334,684.509 680.501,690.509 681,696.5C 681.383,697.056 681.883,697.389 682.5,697.5C 682.5,698.167 682.5,698.833 682.5,699.5C 681.542,699.047 680.708,698.381 680,697.5C 679.176,687.991 679.342,678.657 680.5,669.5 Z"/></g>
<g><path style="opacity:1" fill="#ababab" d="M 1082.5,663.5 C 1085.66,669.467 1088.16,675.801 1090,682.5C 1090.5,693.495 1090.67,704.495 1090.5,715.5C 1090.17,715.5 1089.83,715.5 1089.5,715.5C 1089.67,705.161 1089.5,694.828 1089,684.5C 1086.92,677.44 1084.76,670.44 1082.5,663.5 Z"/></g>
<g><path style="opacity:1" fill="#bdbdbd" d="M 852.5,661.5 C 854.335,662.122 855.502,663.456 856,665.5C 856.667,677.5 856.667,689.5 856,701.5C 855.623,702.942 854.79,703.942 853.5,704.5C 853.709,703.078 854.209,701.745 855,700.5C 855.667,689.167 855.667,677.833 855,666.5C 854.153,664.807 853.32,663.14 852.5,661.5 Z"/></g>
<g><path style="opacity:1" fill="#707070" d="M 602.5,672.5 C 603.209,671.596 604.209,671.263 605.5,671.5C 607.167,672.167 608.833,672.833 610.5,673.5C 608.167,673.5 605.833,673.5 603.5,673.5C 603.5,672.833 603.167,672.5 602.5,672.5 Z"/></g>
<g><path style="opacity:1" fill="#a2a2a2" d="M 1133.5,671.5 C 1134.91,671.973 1135.57,672.973 1135.5,674.5C 1134.09,674.027 1133.43,673.027 1133.5,671.5 Z"/></g>
<g><path style="opacity:1" fill="#9d9d9d" d="M 1151.5,671.5 C 1151.57,673.027 1150.91,674.027 1149.5,674.5C 1149.43,672.973 1150.09,671.973 1151.5,671.5 Z"/></g>
<g><path style="opacity:1" fill="#aaaaaa" d="M 1230.5,670.5 C 1230.26,672.404 1229.26,673.738 1227.5,674.5C 1227.74,672.596 1228.74,671.262 1230.5,670.5 Z"/></g>
<g><path style="opacity:1" fill="#a1a1a1" d="M 1135.5,674.5 C 1136.91,674.973 1137.57,675.973 1137.5,677.5C 1136.09,677.027 1135.43,676.027 1135.5,674.5 Z"/></g>
<g><path style="opacity:1" fill="#9c9c9c" d="M 1149.5,674.5 C 1149.57,676.027 1148.91,677.027 1147.5,677.5C 1147.43,675.973 1148.09,674.973 1149.5,674.5 Z"/></g>
<g><path style="opacity:1" fill="#9d9d9d" d="M 1243.5,673.5 C 1242.92,675.749 1241.59,677.415 1239.5,678.5C 1240.08,676.251 1241.41,674.585 1243.5,673.5 Z"/></g>
<g><path style="opacity:1" fill="#e6e6e6" d="M 594.5,651.5 C 595.167,659.676 595.833,668.01 596.5,676.5C 598.264,674.722 600.264,673.389 602.5,672.5C 603.167,672.5 603.5,672.833 603.5,673.5C 601.983,673.511 600.816,674.177 600,675.5C 598.059,679.048 596.393,682.714 595,686.5C 594.5,674.838 594.333,663.171 594.5,651.5 Z"/></g>
<g><path style="opacity:1" fill="#a3a3a3" d="M 1227.5,674.5 C 1226.92,676.749 1225.59,678.415 1223.5,679.5C 1224.08,677.251 1225.41,675.585 1227.5,674.5 Z"/></g>
<g><path style="opacity:1" fill="#646464" d="M 1186.5,678.5 C 1192.87,678.17 1199.2,678.504 1205.5,679.5C 1205.38,680.107 1205.04,680.44 1204.5,680.5C 1198.5,679.833 1192.5,679.167 1186.5,678.5 Z"/></g>
<g><path style="opacity:1" fill="#979797" d="M 787.5,679.5 C 782.5,680.167 777.5,680.833 772.5,681.5C 771.833,681.5 771.167,681.5 770.5,681.5C 770.611,680.883 770.944,680.383 771.5,680C 776.823,679.501 782.156,679.334 787.5,679.5 Z"/></g>
<g><path style="opacity:1" fill="#c0c0c0" d="M 937.5,678.5 C 937.782,679.778 938.449,680.778 939.5,681.5C 934.709,681.264 934.042,680.264 937.5,678.5 Z"/></g>
<g><path style="opacity:1" fill="#1b1b1b" d="M 680.5,678.5 C 681.117,678.611 681.617,678.944 682,679.5C 682.499,685.491 682.666,691.491 682.5,697.5C 681.883,697.389 681.383,697.056 681,696.5C 680.501,690.509 680.334,684.509 680.5,678.5 Z"/></g>
<g><path style="opacity:1" fill="#9d9d9d" d="M 1137.5,677.5 C 1140.83,681.5 1144.17,681.5 1147.5,677.5C 1146.17,681.254 1143.51,682.421 1139.5,681C 1138.18,680.184 1137.51,679.017 1137.5,677.5 Z"/></g>
<g><path style="opacity:1" fill="#2f2f2f" d="M 1155.5,714.5 C 1154.83,703.833 1154.17,693.167 1153.5,682.5C 1153.78,681.711 1154.28,681.044 1155,680.5C 1155.5,691.828 1155.67,703.162 1155.5,714.5 Z"/></g>
<g><path style="opacity:1" fill="#aaaaaa" d="M 1223.5,679.5 C 1223.26,681.404 1222.26,682.738 1220.5,683.5C 1220.74,681.596 1221.74,680.262 1223.5,679.5 Z"/></g>
<g><path style="opacity:1" fill="#fbfbfb" d="M 770.5,681.5 C 770.5,682.167 770.5,682.833 770.5,683.5C 769.513,688.305 769.179,693.305 769.5,698.5C 765.833,698.5 762.167,698.5 758.5,698.5C 758.279,695.721 758.612,693.054 759.5,690.5C 762.851,687.152 766.518,684.152 770.5,681.5 Z"/></g>
<g><path style="opacity:1" fill="#f6f6f6" d="M 1110.5,650.5 C 1110.5,650.833 1110.5,651.167 1110.5,651.5C 1110.17,673.075 1110.51,694.575 1111.5,716C 1117.17,716.667 1122.83,716.667 1128.5,716C 1129,715.5 1129.5,715 1130,714.5C 1130.33,703.5 1130.67,692.5 1131,681.5C 1132.75,685.327 1134.75,688.993 1137,692.5C 1138.74,693.127 1140.57,693.46 1142.5,693.5C 1145.01,693.712 1147.18,693.045 1149,691.5C 1150.51,688.473 1152.01,685.473 1153.5,682.5C 1154.17,693.167 1154.83,703.833 1155.5,714.5C 1155.61,715.117 1155.94,715.617 1156.5,716C 1162.16,716.499 1167.82,716.666 1173.5,716.5C 1173.5,716.833 1173.5,717.167 1173.5,717.5C 1170.03,720.802 1166.36,723.968 1162.5,727C 1156.17,727.667 1149.83,727.667 1143.5,727C 1143,726.5 1142.5,726 1142,725.5C 1141.67,716.833 1141.33,708.167 1141,699.5C 1138.4,702.383 1135.23,704.05 1131.5,704.5C 1131.67,708.182 1131.5,711.848 1131,715.5C 1126.5,719.333 1122,723.167 1117.5,727C 1111.5,727.667 1105.5,727.667 1099.5,727C 1099,726.5 1098.5,726 1098,725.5C 1097.33,703.833 1097.33,682.167 1098,660.5C 1102.04,656.953 1106.21,653.62 1110.5,650.5 Z"/></g>
<g><path style="opacity:1" fill="#9e9e9e" d="M 1239.5,678.5 C 1238.58,681.089 1236.91,683.089 1234.5,684.5C 1235.42,681.911 1237.09,679.911 1239.5,678.5 Z"/></g>
<g><path style="opacity:1" fill="#a5a5a5" d="M 939.5,681.5 C 943.533,682.693 945.366,685.36 945,689.5C 943.727,686.403 941.893,683.736 939.5,681.5 Z"/></g>
<g><path style="opacity:1" fill="#9f9f9f" d="M 770.5,683.5 C 770.5,688.833 770.5,694.167 770.5,699.5C 765.968,699.818 761.634,699.485 757.5,698.5C 757.833,698.5 758.167,698.5 758.5,698.5C 762.167,698.5 765.833,698.5 769.5,698.5C 769.179,693.305 769.513,688.305 770.5,683.5 Z"/></g>
<g><path style="opacity:1" fill="#777777" d="M 787.5,679.5 C 789.411,679.574 790.578,680.574 791,682.5C 791.667,693.167 791.667,703.833 791,714.5C 790.623,715.942 789.79,716.942 788.5,717.5C 788.5,717.167 788.5,716.833 788.5,716.5C 789.478,704.914 789.811,693.247 789.5,681.5C 783.833,681.5 778.167,681.5 772.5,681.5C 777.5,680.833 782.5,680.167 787.5,679.5 Z"/></g>
<g><path style="opacity:1" fill="#9c9c9c" d="M 925.5,661.5 C 926.79,662.058 927.623,663.058 928,664.5C 928.667,670.167 928.667,675.833 928,681.5C 927.535,682.931 926.701,684.097 925.5,685C 927.315,685.757 928.981,686.59 930.5,687.5C 919.86,686.625 909.194,686.291 898.5,686.5C 898.5,686.167 898.5,685.833 898.5,685.5C 906.84,685.666 915.173,685.5 923.5,685C 925.049,683.786 926.215,682.286 927,680.5C 927.978,673.993 927.478,667.659 925.5,661.5 Z"/></g>
<g><path style="opacity:1" fill="#a2a2a2" d="M 1220.5,683.5 C 1219.92,685.749 1218.59,687.415 1216.5,688.5C 1217.08,686.251 1218.41,684.585 1220.5,683.5 Z"/></g>
<g><path style="opacity:1" fill="#7d7d7d" d="M 1074.5,671.5 C 1076.99,675.458 1078.83,679.791 1080,684.5C 1080.83,692.521 1080.66,700.521 1079.5,708.5C 1078.51,703.208 1078.17,697.875 1078.5,692.5C 1079.83,692.167 1079.83,691.833 1078.5,691.5C 1078.66,688.482 1078.5,685.482 1078,682.5C 1076.72,678.835 1075.56,675.168 1074.5,671.5 Z"/></g>
<g><path style="opacity:1" fill="#a0a0a0" d="M 1234.5,684.5 C 1233.58,687.089 1231.91,689.089 1229.5,690.5C 1230.42,687.911 1232.09,685.911 1234.5,684.5 Z"/></g>
<g><path style="opacity:1" fill="#a9a9a9" d="M 1216.5,688.5 C 1216.26,690.404 1215.26,691.738 1213.5,692.5C 1213.74,690.596 1214.74,689.262 1216.5,688.5 Z"/></g>
<g><path style="opacity:1" fill="#f8f8f8" d="M 1012.5,667.5 C 1012.5,667.833 1012.5,668.167 1012.5,668.5C 1010.21,670.118 1008.21,672.118 1006.5,674.5C 1007.62,679.78 1007.78,685.113 1007,690.5C 1004.56,692.629 1002.06,694.629 999.5,696.5C 995.146,698.348 990.48,699.015 985.5,698.5C 985.5,696.167 985.5,693.833 985.5,691.5C 991.842,691.666 998.175,691.5 1004.5,691C 1005,690.5 1005.5,690 1006,689.5C 1006.67,685.167 1006.67,680.833 1006,676.5C 1005.5,676 1005,675.5 1004.5,675C 998.175,674.5 991.842,674.334 985.5,674.5C 985.5,672.167 985.5,669.833 985.5,667.5C 994.5,667.5 1003.5,667.5 1012.5,667.5 Z"/></g>
<g><path style="opacity:1" fill="#c0c0c0" d="M 1047.5,671.5 C 1046.63,675.577 1045.46,679.577 1044,683.5C 1043.5,686.146 1043.34,688.813 1043.5,691.5C 1055.17,691.5 1066.83,691.5 1078.5,691.5C 1079.83,691.833 1079.83,692.167 1078.5,692.5C 1066.83,692.5 1055.17,692.5 1043.5,692.5C 1043.67,697.844 1043.5,703.177 1043,708.5C 1042.33,699.5 1042.33,690.5 1043,681.5C 1044.23,677.939 1045.73,674.606 1047.5,671.5 Z"/></g>
<g><path style="opacity:1" fill="#9f9f9f" d="M 1229.5,690.5 C 1228.92,692.749 1227.59,694.415 1225.5,695.5C 1226.08,693.251 1227.41,691.585 1229.5,690.5 Z"/></g>
<g><path style="opacity:1" fill="#b6b6b6" d="M 943.5,717.5 C 943.5,717.167 943.5,716.833 943.5,716.5C 943.783,715.711 944.283,715.044 945,714.5C 945.333,706.5 945.667,698.5 946,690.5C 946.667,698.833 946.667,707.167 946,715.5C 945.292,716.381 944.458,717.047 943.5,717.5 Z"/></g>
<g><path style="opacity:1" fill="#a1a1a1" d="M 1213.5,692.5 C 1212.92,694.749 1211.59,696.415 1209.5,697.5C 1210.08,695.251 1211.41,693.585 1213.5,692.5 Z"/></g>
<g><path style="opacity:1" fill="#f9f9f9" d="M 908.5,695.5 C 913.762,695.195 918.928,695.529 924,696.5C 924.206,702.884 924.706,709.217 925.5,715.5C 931.463,716.496 937.463,716.829 943.5,716.5C 943.5,716.833 943.5,717.167 943.5,717.5C 940.026,720.802 936.359,723.968 932.5,727C 926.167,727.667 919.833,727.667 913.5,727C 913,726.5 912.5,726 912,725.5C 911.828,718.987 911.328,712.653 910.5,706.5C 908.702,703.169 908.036,699.502 908.5,695.5 Z"/></g>
<g><path style="opacity:1" fill="#b8b8b8" d="M 930.5,687.5 C 933.188,688.024 934.688,689.691 935,692.5C 935.667,697.833 935.667,703.167 935,708.5C 934.667,703.5 934.333,698.5 934,693.5C 933.436,691.113 932.27,689.113 930.5,687.5 Z"/></g>
<g><path style="opacity:1" fill="#969696" d="M 627.5,694.5 C 628.167,694.5 628.5,694.833 628.5,695.5C 628.37,699.525 627.37,703.191 625.5,706.5C 625.848,702.443 626.514,698.443 627.5,694.5 Z"/></g>
<g><path style="opacity:1" fill="#545454" d="M 843.5,698.5 C 839.167,699.833 834.833,699.833 830.5,698.5C 831.328,692.347 831.828,686.013 832,679.5C 833.455,685.653 833.955,691.986 833.5,698.5C 836.833,698.5 840.167,698.5 843.5,698.5 Z"/></g>
<g><path style="opacity:1" fill="#9b9b9b" d="M 1225.5,695.5 C 1231.41,697.456 1237.75,698.123 1244.5,697.5C 1237.35,698.492 1230.02,698.825 1222.5,698.5C 1223.17,697.167 1224.17,696.167 1225.5,695.5 Z"/></g>
<g><path style="opacity:1" fill="#474747" d="M 1244.5,697.5 C 1245.49,697.328 1246.16,697.662 1246.5,698.5C 1245.83,698.5 1245.5,698.833 1245.5,699.5C 1237.65,699.825 1229.98,699.492 1222.5,698.5C 1230.02,698.825 1237.35,698.492 1244.5,697.5 Z"/></g>
<g><path style="opacity:1" fill="#a8a8a8" d="M 1209.5,697.5 C 1209.26,699.404 1208.26,700.738 1206.5,701.5C 1206.74,699.596 1207.74,698.262 1209.5,697.5 Z"/></g>
<g><path style="opacity:1" fill="#f9f9f9" d="M 1070.5,715.5 C 1076.5,716.167 1082.5,716.833 1088.5,717.5C 1084.38,720.453 1080.38,723.619 1076.5,727C 1070.5,727.667 1064.5,727.667 1058.5,727C 1058,726.5 1057.5,726 1057,725.5C 1056.5,720.845 1056.33,716.179 1056.5,711.5C 1055.5,711.5 1054.5,711.5 1053.5,711.5C 1053.5,712.833 1053.5,714.167 1053.5,715.5C 1053.17,715.5 1052.83,715.5 1052.5,715.5C 1052.5,710.5 1052.5,705.5 1052.5,700.5C 1057.83,700.5 1063.17,700.5 1068.5,700.5C 1068.33,705.179 1068.5,709.845 1069,714.5C 1069.38,715.056 1069.88,715.389 1070.5,715.5 Z"/></g>
<g><path style="opacity:1" fill="#9b9b9b" d="M 625.5,706.5 C 623.678,709.038 621.678,709.038 619.5,706.5C 616.215,699.428 612.548,692.595 608.5,686C 605.692,685.08 603.525,685.913 602,688.5C 601.493,687.004 601.993,685.837 603.5,685C 605.5,684.333 607.5,684.333 609.5,685C 613.548,691.595 617.215,698.428 620.5,705.5C 622.045,706.452 623.712,706.785 625.5,706.5 Z"/></g>
<g><path style="opacity:1" fill="#7f7f7f" d="M 999.5,696.5 C 1003.65,697.325 1007.98,697.825 1012.5,698C 1013.31,698.308 1013.97,698.808 1014.5,699.5C 1015.61,704.446 1015.78,709.446 1015,714.5C 1014.62,715.942 1013.79,716.942 1012.5,717.5C 1012.5,717.167 1012.5,716.833 1012.5,716.5C 1013.45,710.925 1013.79,705.259 1013.5,699.5C 1003.99,699.827 994.652,699.494 985.5,698.5C 990.48,699.015 995.146,698.348 999.5,696.5 Z"/></g>
<g><path style="opacity:1" fill="#a4a4a4" d="M 1245.5,699.5 C 1245.5,698.833 1245.83,698.5 1246.5,698.5C 1247.12,698.611 1247.62,698.944 1248,699.5C 1248.67,704.833 1248.67,710.167 1248,715.5C 1247.29,716.381 1246.46,717.047 1245.5,717.5C 1245.5,717.167 1245.5,716.833 1245.5,716.5C 1247.55,711.785 1248.05,706.785 1247,701.5C 1246.72,700.584 1246.22,699.918 1245.5,699.5 Z"/></g>
<g><path style="opacity:1" fill="#808080" d="M 908.5,695.5 C 908.036,699.502 908.702,703.169 910.5,706.5C 909.683,708.969 909.183,711.635 909,714.5C 908.623,715.942 907.79,716.942 906.5,717.5C 906.5,717.167 906.5,716.833 906.5,716.5C 907.134,709.4 907.801,702.4 908.5,695.5 Z"/></g>
<g><path style="opacity:1" fill="#535353" d="M 1207.5,706.5 C 1218.19,706.168 1228.85,706.501 1239.5,707.5C 1239.38,708.107 1239.04,708.44 1238.5,708.5C 1228.17,707.833 1217.83,707.167 1207.5,706.5 Z"/></g>
<g><path style="opacity:1" fill="#8c8c8c" d="M 587.5,706.5 C 589.199,706.34 590.866,706.506 592.5,707C 590.549,709.065 588.882,708.898 587.5,706.5 Z"/></g>
<g><path style="opacity:1" fill="#909090" d="M 746.5,658.5 C 747.496,674.325 747.83,690.325 747.5,706.5C 758.167,706.5 768.833,706.5 779.5,706.5C 779.334,700.824 779.501,695.157 780,689.5C 780.5,695.825 780.666,702.158 780.5,708.5C 769.167,708.5 757.833,708.5 746.5,708.5C 746.5,691.833 746.5,675.167 746.5,658.5 Z"/></g>
<g><path style="opacity:1" fill="#7a7a7a" d="M 853.5,704.5 C 851.779,706.694 849.445,707.861 846.5,708C 837.324,708.824 828.324,708.657 819.5,707.5C 820.167,707.5 820.5,707.167 820.5,706.5C 830.172,706.666 839.839,706.5 849.5,706C 850.745,705.209 852.078,704.709 853.5,704.5 Z"/></g>
<g><path style="opacity:1" fill="#757575" d="M 975.5,706.5 C 985.522,706.168 995.522,706.501 1005.5,707.5C 995.007,708.823 984.674,708.823 974.5,707.5C 975.167,707.5 975.5,707.167 975.5,706.5 Z"/></g>
<g><path style="opacity:1" fill="#8d8d8d" d="M 1206.5,701.5 C 1206.22,703.415 1206.55,705.081 1207.5,706.5C 1217.83,707.167 1228.17,707.833 1238.5,708.5C 1227.83,708.667 1217.16,708.5 1206.5,708C 1205.19,705.726 1205.19,703.56 1206.5,701.5 Z"/></g>
<g><path style="opacity:1" fill="#9e9e9e" d="M 634.5,709.5 C 634.598,711.553 633.931,713.22 632.5,714.5C 632.402,712.447 633.069,710.78 634.5,709.5 Z"/></g>
<g><path style="opacity:1" fill="#404040" d="M 1033.5,715.5 C 1039.83,715.5 1046.17,715.5 1052.5,715.5C 1052.83,715.5 1053.17,715.5 1053.5,715.5C 1053.17,716.5 1052.5,717.167 1051.5,717.5C 1045.5,716.833 1039.5,716.167 1033.5,715.5 Z"/></g>
<g><path style="opacity:1" fill="#3e3e3e" d="M 1070.5,715.5 C 1076.83,715.5 1083.17,715.5 1089.5,715.5C 1089.83,715.5 1090.17,715.5 1090.5,715.5C 1090.17,716.5 1089.5,717.167 1088.5,717.5C 1082.5,716.833 1076.5,716.167 1070.5,715.5 Z"/></g>
<g><path style="opacity:1" fill="#d3d3d3" d="M 618.5,753.5 C 618.807,747.907 618.473,742.407 617.5,737C 603.167,736.333 588.833,736.333 574.5,737C 573.529,742.072 573.195,747.238 573.5,752.5C 572.833,747.833 572.167,743.167 571.5,738.5C 571.953,737.542 572.619,736.708 573.5,736C 588.5,735.333 603.5,735.333 618.5,736C 619.825,741.932 619.825,747.766 618.5,753.5 Z"/></g>
<g><path style="opacity:1" fill="#cfcfcf" d="M 764.5,753.5 C 764.807,747.907 764.473,742.407 763.5,737C 753.167,736.333 742.833,736.333 732.5,737C 729.454,737.739 726.454,738.572 723.5,739.5C 725.385,737.689 727.719,736.522 730.5,736C 741.833,735.333 753.167,735.333 764.5,736C 765.825,741.932 765.825,747.766 764.5,753.5 Z"/></g>
<g><path style="opacity:1" fill="#030303" d="M 618.5,753.5 C 614.566,754.36 610.566,754.693 606.5,754.5C 606.5,764.5 606.5,774.5 606.5,784.5C 609.625,785.479 612.958,785.813 616.5,785.5C 617.117,785.611 617.617,785.944 618,786.5C 618.781,791.917 618.615,797.25 617.5,802.5C 603.163,802.667 588.829,802.5 574.5,802C 573.944,801.617 573.611,801.117 573.5,800.5C 573.5,795.5 573.5,790.5 573.5,785.5C 577.5,785.5 581.5,785.5 585.5,785.5C 585.5,775.167 585.5,764.833 585.5,754.5C 581.818,754.665 578.152,754.499 574.5,754C 573.944,753.617 573.611,753.117 573.5,752.5C 573.195,747.238 573.529,742.072 574.5,737C 588.833,736.333 603.167,736.333 617.5,737C 618.473,742.407 618.807,747.907 618.5,753.5 Z"/></g>
<g><path style="opacity:1" fill="#030303" d="M 640.5,736.5 C 645.179,736.334 649.845,736.501 654.5,737C 656.323,737.997 657.99,739.164 659.5,740.5C 664.434,746.608 669.601,752.608 675,758.5C 675.201,751.088 675.701,743.754 676.5,736.5C 682.758,736.19 688.924,736.524 695,737.5C 695.821,759.239 695.655,780.906 694.5,802.5C 688.491,802.666 682.491,802.499 676.5,802C 675.695,797.251 675.195,792.418 675,787.5C 670,781.5 665,775.5 660,769.5C 659.667,780.167 659.333,790.833 659,801.5C 652.916,802.642 646.749,802.809 640.5,802C 639.944,801.617 639.611,801.117 639.5,800.5C 639.178,779.091 639.512,757.758 640.5,736.5 Z"/></g>
<g><path style="opacity:1" fill="#b6b6b6" d="M 640.5,736.5 C 645.316,735.35 650.316,735.184 655.5,736C 657.751,736.748 659.084,738.248 659.5,740.5C 657.99,739.164 656.323,737.997 654.5,737C 649.845,736.501 645.179,736.334 640.5,736.5 Z"/></g>
<g><path style="opacity:1" fill="#050505" d="M 764.5,753.5 C 756.214,754.274 747.88,754.774 739.5,755C 739,755.5 738.5,756 738,756.5C 737.333,765.5 737.333,774.5 738,783.5C 738.671,784.252 739.504,784.586 740.5,784.5C 748.316,785.492 756.316,785.826 764.5,785.5C 764.786,791.259 764.452,796.925 763.5,802.5C 752.495,802.667 741.495,802.5 730.5,802C 723.298,800.131 718.798,795.631 717,788.5C 716.333,775.167 716.333,761.833 717,748.5C 718.611,745.062 720.777,742.062 723.5,739.5C 726.454,738.572 729.454,737.739 732.5,737C 742.833,736.333 753.167,736.333 763.5,737C 764.473,742.407 764.807,747.907 764.5,753.5 Z"/></g>
<g><path style="opacity:1" fill="#f6f6f6" d="M 571.5,738.5 C 572.167,743.167 572.833,747.833 573.5,752.5C 573.611,753.117 573.944,753.617 574.5,754C 578.152,754.499 581.818,754.665 585.5,754.5C 585.5,764.833 585.5,775.167 585.5,785.5C 581.5,785.5 577.5,785.5 573.5,785.5C 573.5,790.5 573.5,795.5 573.5,800.5C 572.514,796.03 572.181,791.363 572.5,786.5C 572.5,779.5 572.5,772.5 572.5,765.5C 562.937,768.097 558.937,764.597 560.5,755C 560.667,752.167 560.833,749.333 561,746.5C 564.376,743.617 567.876,740.951 571.5,738.5 Z"/></g>
<g><path style="opacity:1" fill="#fcfcfc" d="M 637.5,738.5 C 638.167,759.167 638.833,779.833 639.5,800.5C 639.611,801.117 639.944,801.617 640.5,802C 646.749,802.809 652.916,802.642 659,801.5C 659.333,790.833 659.667,780.167 660,769.5C 665,775.5 670,781.5 675,787.5C 675.195,792.418 675.695,797.251 676.5,802C 682.491,802.499 688.491,802.666 694.5,802.5C 694.5,802.833 694.5,803.167 694.5,803.5C 690.375,806.453 686.375,809.619 682.5,813C 676.5,813.667 670.5,813.667 664.5,813C 664,812.5 663.5,812 663,811.5C 662.946,806.321 662.279,801.321 661,796.5C 660.667,798.5 660.333,800.5 660,802.5C 655.214,805.618 650.714,809.118 646.5,813C 640.5,813.667 634.5,813.667 628.5,813C 628,812.5 627.5,812 627,811.5C 626.333,790.167 626.333,768.833 627,747.5C 630.078,743.915 633.578,740.915 637.5,738.5 Z"/></g>
<g><path style="opacity:1" fill="#ececec" d="M 676.5,736.5 C 675.701,743.754 675.201,751.088 675,758.5C 669.601,752.608 664.434,746.608 659.5,740.5C 661.463,741.96 663.296,743.627 665,745.5C 668.728,742.262 672.561,739.262 676.5,736.5 Z"/></g>
<g><path style="opacity:1" fill="#bebebe" d="M 640.5,736.5 C 639.512,757.758 639.178,779.091 639.5,800.5C 638.833,779.833 638.167,759.167 637.5,738.5C 637.973,737.094 638.973,736.427 640.5,736.5 Z"/></g>
<g><path style="opacity:1" fill="#d0d0d0" d="M 676.5,736.5 C 682.901,735.174 689.401,735.174 696,736.5C 696.667,758.5 696.667,780.5 696,802.5C 695.617,803.056 695.117,803.389 694.5,803.5C 694.5,803.167 694.5,802.833 694.5,802.5C 695.655,780.906 695.821,759.239 695,737.5C 688.924,736.524 682.758,736.19 676.5,736.5 Z"/></g>
<g><path style="opacity:1" fill="#f8f8f8" d="M 723.5,739.5 C 720.777,742.062 718.611,745.062 717,748.5C 716.333,761.833 716.333,775.167 717,788.5C 718.798,795.631 723.298,800.131 730.5,802C 741.495,802.5 752.495,802.667 763.5,802.5C 763.5,802.833 763.5,803.167 763.5,803.5C 759.712,806.899 755.712,810.066 751.5,813C 746.167,813.167 740.833,813.333 735.5,813.5C 723.1,816.206 713.267,812.539 706,802.5C 705.64,800.392 704.973,798.392 704,796.5C 703.333,784.167 703.333,771.833 704,759.5C 704.806,756.554 706.139,753.888 708,751.5C 712.776,746.878 717.942,742.878 723.5,739.5 Z"/></g>
<g><path style="opacity:1" fill="#bcbcbc" d="M 728.5,749.5 C 729.457,746.832 731.457,745.332 734.5,745C 741.833,744.333 749.167,744.333 756.5,745C 749.833,745.333 743.167,745.667 736.5,746C 733.435,746.368 730.768,747.535 728.5,749.5 Z"/></g>
<g><path style="opacity:1" fill="#d9d9d9" d="M 581.5,745.5 C 603.357,744.38 608.357,744.38 596.5,745.5C 596.5,761.5 596.5,777.5 596.5,793.5C 596.167,794.833 595.833,794.833 595.5,793.5C 595.5,777.5 595.5,761.5 595.5,745.5C 590.833,745.5 586.167,745.5 581.5,745.5 Z"/></g>
<g><path style="opacity:1" fill="#9c9c9c" d="M 652.5,747.5 C 651.85,747.196 651.183,746.863 650.5,746.5C 649.667,762.49 649.167,778.49 649,794.5C 648.5,777.837 648.333,761.17 648.5,744.5C 650.973,744.088 652.306,745.088 652.5,747.5 Z"/></g>
<g><path style="opacity:1" fill="#7d7d7d" d="M 676.5,774.5 C 679.084,776.578 681.584,778.912 684,781.5C 684.167,769.153 684.667,756.82 685.5,744.5C 686.833,761.167 686.833,777.833 685.5,794.5C 684.675,790.878 684.175,787.211 684,783.5C 680.888,780.899 678.388,777.899 676.5,774.5 Z"/></g>
<g><path style="opacity:1" fill="#a3a3a3" d="M 652.5,747.5 C 655.903,749.9 658.57,752.9 660.5,756.5C 657.097,754.1 654.43,751.1 652.5,747.5 Z"/></g>
<g><path style="opacity:1" fill="#f1f1f1" d="M 764.5,753.5 C 760.361,757.468 756.027,761.301 751.5,765C 747.179,765.499 742.846,765.666 738.5,765.5C 738.334,771.176 738.501,776.843 739,782.5C 739.671,783.252 740.504,783.586 741.5,783.5C 741.5,784.167 741.167,784.5 740.5,784.5C 739.504,784.586 738.671,784.252 738,783.5C 737.333,774.5 737.333,765.5 738,756.5C 738.5,756 739,755.5 739.5,755C 747.88,754.774 756.214,754.274 764.5,753.5 Z"/></g>
<g><path style="opacity:1" fill="#cfcfcf" d="M 728.5,749.5 C 727.167,762.833 727.167,776.167 728.5,789.5C 727.883,789.389 727.383,789.056 727,788.5C 726.333,775.833 726.333,763.167 727,750.5C 727.383,749.944 727.883,749.611 728.5,749.5 Z"/></g>
<g><path style="opacity:1" fill="#a1a1a1" d="M 660.5,756.5 C 663.903,758.9 666.57,761.9 668.5,765.5C 665.097,763.1 662.43,760.1 660.5,756.5 Z"/></g>
<g><path style="opacity:1" fill="#ececec" d="M 618.5,753.5 C 614.896,756.602 611.396,759.935 608,763.5C 607.5,770.158 607.334,776.825 607.5,783.5C 607.5,784.167 607.167,784.5 606.5,784.5C 606.5,774.5 606.5,764.5 606.5,754.5C 610.566,754.693 614.566,754.36 618.5,753.5 Z"/></g>
<g><path style="opacity:1" fill="#9d9d9d" d="M 668.5,765.5 C 671.903,767.9 674.57,770.9 676.5,774.5C 673.097,772.1 670.43,769.1 668.5,765.5 Z"/></g>
<g><path style="opacity:1" fill="#737373" d="M 607.5,783.5 C 611.042,783.187 614.375,783.521 617.5,784.5C 616.833,784.5 616.5,784.833 616.5,785.5C 612.958,785.813 609.625,785.479 606.5,784.5C 607.167,784.5 607.5,784.167 607.5,783.5 Z"/></g>
<g><path style="opacity:1" fill="#787878" d="M 741.5,783.5 C 748.841,783.334 756.174,783.5 763.5,784C 764.056,784.383 764.389,784.883 764.5,785.5C 756.316,785.826 748.316,785.492 740.5,784.5C 741.167,784.5 741.5,784.167 741.5,783.5 Z"/></g>
<g><path style="opacity:1" fill="#fbfbfb" d="M 572.5,786.5 C 572.181,791.363 572.514,796.03 573.5,800.5C 573.611,801.117 573.944,801.617 574.5,802C 588.829,802.5 603.163,802.667 617.5,802.5C 617.5,802.833 617.5,803.167 617.5,803.5C 613.375,806.453 609.375,809.619 605.5,813C 590.833,813.667 576.167,813.667 561.5,813C 560.359,807.25 560.193,801.416 561,795.5C 564.728,792.262 568.561,789.262 572.5,786.5 Z"/></g>
<g><path style="opacity:1" fill="#b6b6b6" d="M 616.5,785.5 C 616.5,784.833 616.833,784.5 617.5,784.5C 618.117,784.611 618.617,784.944 619,785.5C 619.667,791.167 619.667,796.833 619,802.5C 618.617,803.056 618.117,803.389 617.5,803.5C 617.5,803.167 617.5,802.833 617.5,802.5C 618.615,797.25 618.781,791.917 618,786.5C 617.617,785.944 617.117,785.611 616.5,785.5 Z"/></g>
<g><path style="opacity:1" fill="#b5b5b5" d="M 764.5,785.5 C 765.652,790.985 765.818,796.651 765,802.5C 764.617,803.056 764.117,803.389 763.5,803.5C 763.5,803.167 763.5,802.833 763.5,802.5C 764.452,796.925 764.786,791.259 764.5,785.5 Z"/></g>
<g><path style="opacity:1" fill="#b1b1b1" d="M 728.5,789.5 C 730.768,791.465 733.435,792.632 736.5,793C 743.167,793.333 749.833,793.667 756.5,794C 749.167,794.667 741.833,794.667 734.5,794C 731.457,793.668 729.457,792.168 728.5,789.5 Z"/></g>
<g><path style="opacity:1" fill="#d3d3d3" d="M 621.5,836.5 C 622.978,836.238 624.311,836.571 625.5,837.5C 623.537,840.194 622.203,839.861 621.5,836.5 Z"/></g>
<g><path style="opacity:1" fill="#ebebeb" d="M 666.5,836.5 C 667.5,836.5 668.5,836.5 669.5,836.5C 668.754,840.31 667.754,840.31 666.5,836.5 Z"/></g>
<g><path style="opacity:1" fill="#e7e7e7" d="M 693.5,836.5 C 694.5,836.5 695.5,836.5 696.5,836.5C 695.754,840.31 694.754,840.31 693.5,836.5 Z"/></g>
<g><path style="opacity:1" fill="#fcfcfc" d="M 672.5,837.5 C 674.141,842.251 675.141,847.251 675.5,852.5C 676.885,853.302 676.718,853.969 675,854.5C 674.228,854.355 673.561,854.022 673,853.5C 672.501,848.177 672.334,842.844 672.5,837.5 Z"/></g>
<g><path style="opacity:1" fill="#7f7f7f" d="M 672.5,837.5 C 673.209,836.596 674.209,836.263 675.5,836.5C 675.5,841.833 675.5,847.167 675.5,852.5C 675.141,847.251 674.141,842.251 672.5,837.5 Z"/></g>
<g><path style="opacity:1" fill="#828282" d="M 686.5,837.5 C 684.744,838.552 684.077,840.219 684.5,842.5C 683.167,842.5 681.833,842.5 680.5,842.5C 681.209,841.596 682.209,841.263 683.5,841.5C 683.5,839.833 683.5,838.167 683.5,836.5C 684.791,836.263 685.791,836.596 686.5,837.5 Z"/></g>
<g><path style="opacity:1" fill="#e7e7e7" d="M 560.5,838.5 C 566.922,837.104 570.256,839.604 570.5,846C 570.644,852.777 567.31,855.61 560.5,854.5C 560.5,849.167 560.5,843.833 560.5,838.5 Z"/></g>
<g><path style="opacity:1" fill="#e1e1e1" d="M 644.5,838.5 C 647.685,838.02 650.519,838.686 653,840.5C 653.825,842.701 653.325,844.534 651.5,846C 655.68,849.148 655.347,851.814 650.5,854C 648.527,854.495 646.527,854.662 644.5,854.5C 644.5,849.167 644.5,843.833 644.5,838.5 Z"/></g>
<g><path style="opacity:1" fill="#ececec" d="M 626.5,844.5 C 626.557,843.391 626.89,842.391 627.5,841.5C 627.821,839.952 628.821,839.285 630.5,839.5C 630.48,841.143 631.147,842.476 632.5,843.5C 629.833,846.833 629.833,850.167 632.5,853.5C 630.994,854.747 629.494,854.747 628,853.5C 627.819,850.305 627.319,847.305 626.5,844.5 Z"/></g>
<g><path style="opacity:1" fill="#e7e7e7" d="M 698.5,844.5 C 698.557,843.391 698.89,842.391 699.5,841.5C 699.821,839.952 700.821,839.285 702.5,839.5C 702.48,841.143 703.147,842.476 704.5,843.5C 702.74,846.212 702.073,849.212 702.5,852.5C 704.806,852.007 707.139,851.674 709.5,851.5C 709.5,852.5 709.5,853.5 709.5,854.5C 706.644,854.072 703.644,853.905 700.5,854C 699.868,850.73 699.201,847.563 698.5,844.5 Z"/></g>
<g><path style="opacity:1" fill="#0f0f0f" d="M 647.5,840.5 C 649.912,840.694 650.912,842.027 650.5,844.5C 649.5,844.5 648.5,844.5 647.5,844.5C 647.5,843.167 647.5,841.833 647.5,840.5 Z"/></g>
<g><path style="opacity:1" fill="#070707" d="M 563.5,840.5 C 566.525,841.033 567.858,842.867 567.5,846C 567.954,849.293 566.62,851.126 563.5,851.5C 563.5,847.833 563.5,844.167 563.5,840.5 Z"/></g>
<g><path style="opacity:1" fill="#ededed" d="M 572.5,842.5 C 574.604,842.201 576.604,842.534 578.5,843.5C 577.758,844.287 576.925,844.953 576,845.5C 575.502,848.482 575.335,851.482 575.5,854.5C 574.5,854.5 573.5,854.5 572.5,854.5C 572.5,850.5 572.5,846.5 572.5,842.5 Z"/></g>
<g><path style="opacity:1" fill="#dcdcdc" d="M 592.5,841.5 C 594.722,841.178 596.556,841.845 598,843.5C 598.246,846.89 598.746,850.223 599.5,853.5C 599.167,853.833 598.833,854.167 598.5,854.5C 596.007,854.4 593.507,854.067 591,853.5C 589.701,849.292 591.201,846.625 595.5,845.5C 594.167,844.833 592.833,844.167 591.5,843.5C 591.863,842.817 592.196,842.15 592.5,841.5 Z"/></g>
<g><path style="opacity:1" fill="#d9d9d9" d="M 605.5,841.5 C 607.722,842.386 609.888,842.386 612,841.5C 613.261,841.759 614.261,842.426 615,843.5C 615.499,847.152 615.665,850.818 615.5,854.5C 614.5,854.5 613.5,854.5 612.5,854.5C 612.5,851.167 612.5,847.833 612.5,844.5C 611.5,844.5 610.5,844.5 609.5,844.5C 609.5,847.833 609.5,851.167 609.5,854.5C 608.5,854.5 607.5,854.5 606.5,854.5C 605.833,841.167 605.167,841.167 604.5,854.5C 603.5,854.5 602.5,854.5 601.5,854.5C 601.5,850.5 601.5,846.5 601.5,842.5C 603.099,842.768 604.432,842.434 605.5,841.5 Z"/></g>
<g><path style="opacity:1" fill="#5c5c5c" d="M 627.5,841.5 C 626.89,842.391 626.557,843.391 626.5,844.5C 625.521,847.625 625.187,850.958 625.5,854.5C 624.167,854.5 622.833,854.5 621.5,854.5C 621.183,850.298 621.517,846.298 622.5,842.5C 623.919,841.549 625.585,841.216 627.5,841.5 Z"/></g>
<g><path style="opacity:1" fill="#fefffe" d="M 622.5,842.5 C 623.787,843.871 624.453,845.705 624.5,848C 624.167,849.833 623.833,851.667 623.5,853.5C 622.511,849.893 622.177,846.226 622.5,842.5 Z"/></g>
<g><path style="opacity:1" fill="#e8e8e8" d="M 661.5,842.5 C 662.787,843.871 663.453,845.705 663.5,848C 663.453,850.295 662.787,852.129 661.5,853.5C 659.834,854.666 658.167,854.666 656.5,853.5C 655.567,849.571 655.234,845.571 655.5,841.5C 656.5,841.5 657.5,841.5 658.5,841.5C 658.177,845.226 658.511,848.893 659.5,852.5C 660.086,852.291 660.586,851.957 661,851.5C 661.498,848.518 661.665,845.518 661.5,842.5 Z"/></g>
<g><path style="opacity:1" fill="#a6a6a6" d="M 661.5,842.5 C 662.209,841.596 663.209,841.263 664.5,841.5C 664.5,845.833 664.5,850.167 664.5,854.5C 663.209,854.737 662.209,854.404 661.5,853.5C 662.787,852.129 663.453,850.295 663.5,848C 663.453,845.705 662.787,843.871 661.5,842.5 Z"/></g>
<g><path style="opacity:1" fill="#9b9b9b" d="M 669.5,842.5 C 668.213,843.871 667.547,845.705 667.5,848C 667.547,850.295 668.213,852.129 669.5,853.5C 668.791,854.404 667.791,854.737 666.5,854.5C 666.5,850.167 666.5,845.833 666.5,841.5C 667.791,841.263 668.791,841.596 669.5,842.5 Z"/></g>
<g><path style="opacity:1" fill="#fefffe" d="M 669.5,842.5 C 669.5,846.167 669.5,849.833 669.5,853.5C 668.213,852.129 667.547,850.295 667.5,848C 667.547,845.705 668.213,843.871 669.5,842.5 Z"/></g>
<g><path style="opacity:1" fill="#eaeaea" d="M 686.5,837.5 C 686.829,843.206 686.495,848.872 685.5,854.5C 683.574,853.939 681.574,853.773 679.5,854C 677.607,851.083 677.107,847.916 678,844.5C 678.417,843.244 679.25,842.577 680.5,842.5C 681.833,842.5 683.167,842.5 684.5,842.5C 684.077,840.219 684.744,838.552 686.5,837.5 Z"/></g>
<g><path style="opacity:1" fill="#565656" d="M 699.5,841.5 C 698.89,842.391 698.557,843.391 698.5,844.5C 697.521,847.625 697.187,850.958 697.5,854.5C 696.167,854.5 694.833,854.5 693.5,854.5C 693.5,850.167 693.5,845.833 693.5,841.5C 695.5,841.5 697.5,841.5 699.5,841.5 Z"/></g>
<g><path style="opacity:1" fill="#fefffe" d="M 694.5,842.5 C 695.787,843.871 696.453,845.705 696.5,848C 696.167,849.833 695.833,851.667 695.5,853.5C 694.511,849.893 694.177,846.226 694.5,842.5 Z"/></g>
<g><path style="opacity:1" fill="#e9e9e9" d="M 588.5,845.5 C 588.5,846.5 588.5,847.5 588.5,848.5C 586.5,848.5 584.5,848.5 582.5,848.5C 582.263,849.791 582.596,850.791 583.5,851.5C 584.542,852.791 585.708,852.791 587,851.5C 588.724,853.498 588.057,854.498 585,854.5C 579.383,852.593 578.05,848.927 581,843.5C 584.518,840.504 587.018,841.171 588.5,845.5 Z"/></g>
<g><path style="opacity:1" fill="#121212" d="M 680.5,844.5 C 681.5,844.5 682.5,844.5 683.5,844.5C 683.813,847.247 683.48,849.914 682.5,852.5C 681.914,852.291 681.414,851.957 681,851.5C 680.503,849.19 680.337,846.857 680.5,844.5 Z"/></g>
<g><path style="opacity:1" fill="#434343" d="M 583.5,843.5 C 585.912,843.694 586.912,845.027 586.5,847.5C 585.167,847.5 583.833,847.5 582.5,847.5C 582.433,846.041 582.766,844.708 583.5,843.5 Z"/></g>
<g><path style="opacity:1" fill="#010101" d="M 647.5,847.5 C 648.5,847.5 649.5,847.5 650.5,847.5C 650.5,848.833 650.5,850.167 650.5,851.5C 649.5,851.5 648.5,851.5 647.5,851.5C 647.5,850.167 647.5,848.833 647.5,847.5 Z"/></g>
<g><path style="opacity:1" fill="#7a7a7a" d="M 588.5,845.5 C 589.434,846.568 589.768,847.901 589.5,849.5C 586.918,849.025 584.918,849.692 583.5,851.5C 582.596,850.791 582.263,849.791 582.5,848.5C 584.5,848.5 586.5,848.5 588.5,848.5C 588.5,847.5 588.5,846.5 588.5,845.5 Z"/></g>
<g><path style="opacity:1" fill="#141414" d="M 593.5,848.5 C 594.586,848.62 595.253,849.287 595.5,850.5C 595.167,851.167 594.833,851.833 594.5,852.5C 593.571,851.311 593.238,849.978 593.5,848.5 Z"/></g>
<g><path style="opacity:1" fill="#ebebeb" d="M 634.5,851.5 C 635.5,851.5 636.5,851.5 637.5,851.5C 637.5,852.5 637.5,853.5 637.5,854.5C 636.5,854.5 635.5,854.5 634.5,854.5C 634.5,853.5 634.5,852.5 634.5,851.5 Z"/></g>
</svg>
